<svg xmlns="http://www.w3.org/2000/svg" xmlns:xlink="http://www.w3.org/1999/xlink" xmlns:xodm="http://www.corel.com/coreldraw/odm/2003" xml:space="preserve" version="1.1" style="shape-rendering:geometricPrecision; text-rendering:geometricPrecision; image-rendering:optimizeQuality; fill-rule:evenodd; clip-rule:evenodd" viewBox="853.6 452.84 1717.31 1982.43">
 <defs>
  <style type="text/css">
   <![CDATA[
    .fil9 {fill:#FEFEFE}
    .fil8 {fill:#F26B35}
    .fil3 {fill:#FEFEFE;fill-rule:nonzero}
    .fil7 {fill:#F26B35;fill-rule:nonzero}
    .fil0 {fill:#F26B35;fill-rule:nonzero}
    .fil6 {fill:#EEF2F6;fill-rule:nonzero}
    .fil5 {fill:#CA5839;fill-rule:nonzero}
    .fil4 {fill:#BBC7DF;fill-rule:nonzero}
    .fil2 {fill:#6FB658;fill-rule:nonzero}
    .fil1 {fill:#4FB855;fill-rule:nonzero}
   ]]>
  </style>
 </defs>
 <g id="Layer_x0020_1">
  <metadata id="CorelCorpID_0Corel-Layer"/>
  <g id="_2106456679632">
   <path class="fil0" d="M2004.06 959.79l0 -33.44 -550.21 0 0 -148.22c0.02,-71.46 28.87,-135.83 75.68,-182.7 46.87,-46.82 111.24,-75.67 182.7,-75.69l0.01 0c71.44,0.02 135.83,28.87 182.69,75.69 46.82,46.87 75.67,111.24 75.69,182.7l0 181.66 33.44 0 0 -33.44 0 33.44 33.45 0 0 -181.66c-0.03,-179.65 -145.62,-325.25 -325.27,-325.29l-0.01 0c-179.67,0.04 -325.25,145.64 -325.27,325.29l0 215.11 650.56 0 0 -33.45 -33.45 0z"/>
   <path class="fil0" d="M2491.02 2435.27l-1557.52 0c-46.72,0 -83.54,-39.96 -79.61,-86.37l12.12 -145.37 10.85 -128.85 5.66 -67.02 10.7 -128.22 92.19 -1102.06c3.46,-41.38 38.07,-73.16 79.45,-73.16l1294.63 0c41.53,0 76.14,31.78 79.44,73.16l71.43 852.39 9.28 110.28 0.48 4.72 9.44 113.43 41.06 490.7c3.93,46.41 -32.88,86.37 -79.61,86.37z"/>
   <path class="fil1" d="M1980.92 945.15l0 -29.53 -485.74 0 0 -130.85c0.02,-63.08 25.49,-119.92 66.81,-161.29 41.37,-41.33 98.21,-66.81 161.29,-66.82l0.01 0c63.07,0.01 119.92,25.48 161.28,66.82 41.33,41.37 66.8,98.21 66.82,161.29l0 160.37 29.53 0 0 -29.53 0 29.53 29.53 0 0 -160.37c-0.03,-158.6 -128.56,-287.14 -287.15,-287.17l-0.01 0c-158.61,0.03 -287.14,128.57 -287.15,287.17l0 189.9 574.32 0 0 -29.53 -29.53 0z"/>
   <path class="fil2" d="M2410.81 2327.17l-1375 0c-41.25,0 -73.75,-35.28 -70.28,-76.25l10.7 -128.33 9.58 -113.75 5 -59.17 9.44 -113.19 81.39 -972.92c3.06,-36.53 33.61,-64.58 70.14,-64.58l1142.92 0c36.67,0 67.22,28.06 70.14,64.58l63.06 752.5 8.19 97.36 0.42 4.17 8.33 100.14 36.25 433.2c3.47,40.97 -29.03,76.25 -70.28,76.25z"/>
   <path class="fil3" d="M2011.26 2195.8l-579.58 0c-40.1,0 -72.6,-32.52 -72.6,-72.6l0 -1037.33c0,-40.09 32.5,-72.59 72.6,-72.59l579.58 0c40.1,0 72.6,32.5 72.6,72.59l0 1037.33c0,40.08 -32.5,72.6 -72.6,72.6z"/>
   <path class="fil4" d="M1928.94 2013.2l-414.96 0c-28.7,0 -51.97,-23.25 -51.97,-51.97l0 -742.65c0,-28.71 23.28,-51.98 51.97,-51.98l414.96 0c28.71,0 51.97,23.28 51.97,51.98l0 742.65c0,28.72 -23.26,51.97 -51.97,51.97z"/>
   <path class="fil4" d="M2083.86 1461.69l0 -387.13c0,-33.85 -32.5,-61.29 -72.6,-61.29l-579.58 0c-40.1,0 -72.6,27.44 -72.6,61.29l0 387.13 724.78 0z"/>
   <path class="fil5" d="M1344.11 1403.83l0 0c-52.11,0 -94.35,-42.24 -94.35,-94.35l0 -105 188.68 0 0 105c0,52.11 -42.24,94.35 -94.33,94.35z"/>
   <path class="fil6" d="M1532.79 1403.83l0 0c-52.11,0 -94.35,-42.24 -94.35,-94.35l0 -105 188.68 0 0 105c0,52.11 -42.24,94.35 -94.33,94.35z"/>
   <path class="fil5" d="M1721.47 1403.83l0 0c-52.11,0 -94.35,-42.24 -94.35,-94.35l0 -105 188.68 0 0 105c0,52.11 -42.24,94.35 -94.33,94.35z"/>
   <path class="fil6" d="M1910.15 1403.83l0 0c-52.11,0 -94.35,-42.24 -94.35,-94.35l0 -105 188.68 0 0 105c0,52.11 -42.24,94.35 -94.33,94.35z"/>
   <path class="fil5" d="M2098.83 1403.83l0 0c-52.11,0 -94.35,-42.24 -94.35,-94.35l0 -105 188.68 0 0 105c0,52.11 -42.24,94.35 -94.33,94.35z"/>
   <polygon class="fil7" points="1438.44,1204.48 1249.76,1204.48 1367.85,1013.27 1509.29,1013.27 "/>
   <polygon class="fil3" points="1627.13,1204.48 1438.44,1204.48 1509.29,1013.27 1650.74,1013.27 "/>
   <polygon class="fil7" points="1815.81,1204.48 1627.13,1204.48 1650.74,1013.27 1792.2,1013.27 "/>
   <polygon class="fil3" points="2004.49,1204.48 1815.81,1204.48 1792.2,1013.27 1933.64,1013.27 "/>
   <polygon class="fil7" points="2193.17,1204.48 2004.49,1204.48 1933.64,1013.27 2075.1,1013.27 "/>
   <path class="fil8" d="M1498.94 1595.16c-1.34,12.44 18.91,40.47 25.82,51.89l188.2 317.39c18.58,31.53 15.93,31.36 48.39,-24.95l173.74 -292.99c6.13,-10.6 28.04,-39.9 26.06,-52.83 -15.13,-4.83 -76.18,-2.62 -96.78,-2.68 -19.51,-0.06 -28.55,-1.04 -38.25,12.58 -6.85,9.62 -12.69,21.22 -18.82,31.67 -12.68,21.58 -25.07,42.28 -37.5,63.6 -6.42,11.02 -31.68,57.49 -39.61,62.41 -9.52,-5.42 -81.94,-133.43 -96.45,-157.13 -9.18,-15 -16.66,-12.69 -37.72,-12.64 -17.16,0.04 -87.55,-2.86 -97.07,3.69z"/>
   <path class="fil9" d="M1571.68 1563.63c-0.9,8.35 12.68,27.13 17.31,34.79l126.19 212.81c12.46,21.14 10.68,21.02 32.44,-16.73l116.49 -196.45c4.11,-7.1 18.8,-26.75 17.47,-35.42 -10.15,-3.24 -51.07,-1.76 -64.89,-1.8 -13.08,-0.04 -19.14,-0.7 -25.65,8.43 -4.59,6.45 -8.5,14.23 -12.62,21.24 -8.5,14.47 -16.81,28.35 -25.15,42.64 -4.3,7.39 -21.24,38.55 -26.56,41.84 -6.39,-3.63 -54.94,-89.46 -64.67,-105.36 -6.16,-10.06 -11.17,-8.5 -25.3,-8.47 -11.51,0.02 -58.7,-1.92 -65.09,2.47z"/>
  </g>
 </g>
</svg>