<?xml version="1.0" encoding="UTF-8" standalone="no"?>
<!-- Creator: CorelDRAW 2021 (64-Bit) -->

<svg
   xml:space="preserve"
   width="1.99666in"
   height="0.669961in"
   version="1.1"
   style="shape-rendering:geometricPrecision; text-rendering:geometricPrecision; image-rendering:optimizeQuality; fill-rule:evenodd; clip-rule:evenodd"
   viewBox="0 0 1996.66 669.96"
   id="svg2"
   sodipodi:docname="TekSpear Logo.svg"
   inkscape:version="1.3 (0e150ed6c4, 2023-07-21)"
   xmlns:inkscape="http://www.inkscape.org/namespaces/inkscape"
   xmlns:sodipodi="http://sodipodi.sourceforge.net/DTD/sodipodi-0.dtd"
   xmlns="http://www.w3.org/2000/svg"
   xmlns:svg="http://www.w3.org/2000/svg"><sodipodi:namedview
   id="namedview2"
   pagecolor="#ffffff"
   bordercolor="#000000"
   borderopacity="0.25"
   inkscape:showpageshadow="2"
   inkscape:pageopacity="0.0"
   inkscape:pagecheckerboard="0"
   inkscape:deskcolor="#d1d1d1"
   inkscape:document-units="in"
   inkscape:zoom="3.0206695"
   inkscape:cx="139.37308"
   inkscape:cy="59.09286"
   inkscape:window-width="1920"
   inkscape:window-height="1009"
   inkscape:window-x="-8"
   inkscape:window-y="-8"
   inkscape:window-maximized="1"
   inkscape:current-layer="Layer_x0020_1"
   showgrid="false" />&#10; <defs
   id="defs1">&#10;  <style
   type="text/css"
   id="style1">&#10;   <![CDATA[
    .fil2 {fill:#C33538}
    .fil3 {fill:#1D5F97}
    .fil0 {fill:#C23538;fill-rule:nonzero}
    .fil1 {fill:#1D5F95;fill-rule:nonzero}
   ]]>&#10;  </style>&#10; </defs>&#10; <g
   id="Layer_x0020_1"
   inkscape:label="Layer 1">&#10;  <metadata
   id="CorelCorpID_0Corel-Layer" />&#10;  <path
   class="fil0"
   d="m 164.48,414.51668 c 7.46,-73.83 11.97,-155.11 13.44,-243.86 l -97.06,2.33 1.09,-25.18 c 0.62,-13.52 1.09,-28.29 1.4,-44.3 43.13,0.31 93.41,0.46 150.76,0.46 l 56.26,-0.23 h 54.71 l 29.61,-0.23 -1.4,22.22 c -0.54,11.97 -1.01,21.84 -1.24,29.61 -0.23,7.77 -0.31,13.68 -0.31,17.64 -32.48,-1.56 -59.29,-2.33 -80.35,-2.33 h -15.93 c -2.33,26.81 -4.04,51.6 -5.28,74.37 -1.71,32.64 -2.96,64.27 -3.89,94.96 -0.93,30.7 -1.4,55.57 -1.4,74.53 -24.87,-0.31 -40.87,-0.46 -48.18,-0.46 -6.45,0 -23.94,0.15 -52.22,0.46 z"
   id="path1"
   style="fill:#f26b35;fill-opacity:1" />&#10;  <path
   id="_1"
   class="fil0"
   d="m 383.56,414.51668 c 2.54,-26.11 4.35,-47.98 5.54,-65.64 1.14,-17.61 2.33,-41.03 3.47,-70.25 1.19,-29.17 1.76,-48.54 1.76,-58.08 l -0.15,-13.37 c 23.88,0.21 52.79,0.31 86.67,0.31 31.24,0 58.8,-0.1 82.69,-0.31 l -0.31,5.03 c -0.1,1.19 -0.36,5.59 -0.72,13.21 l -0.93,16.53 c -0.2,3.52 -0.31,7.1 -0.31,10.78 -19.48,-0.83 -35.85,-1.24 -49.11,-1.24 -14.56,0 -24.4,0.05 -29.48,0.1 -5.13,0.05 -13.06,0.26 -23.89,0.67 l -1.76,34.81 c 11.97,0.31 25.85,0.46 41.7,0.46 5.7,0 20.78,-0.36 45.23,-1.09 -1.04,12.95 -1.97,28.39 -2.9,46.32 -17.51,-0.21 -30.98,-0.31 -40.41,-0.31 -13.99,0 -29.63,0.31 -46.94,0.93 l -1.92,36.99 h 17.46 c 5.18,0 15.85,-0.15 32.02,-0.46 l 31.45,-0.78 c 4.66,-0.1 12.43,-0.52 23.36,-1.24 -1.19,15.02 -2.22,30.57 -3.06,46.63 -24.66,-0.21 -51.7,-0.31 -81.13,-0.31 l -66.78,0.16 z"
   style="fill:#f26b35;fill-opacity:1" />&#10;  <path
   id="_2"
   class="fil0"
   d="m 588.46,414.51668 c 1.92,-18.96 3.31,-34.61 4.09,-47.09 1.56,-22.07 3.16,-52.28 4.87,-90.67 1.24,-26.73 1.81,-45.59 1.81,-56.52 v -13.06 c 16.89,0.21 28.5,0.31 34.87,0.31 4.2,0 15.13,-0.1 32.69,-0.31 l -7.15,113.46 -3.63,93.88 -32.9,-0.31 c -4.61,0 -16.16,0.1 -34.66,0.31 z m 75.95,-109.26 34.09,-46.37 27.51,-38.65 8.5,-13.06 c 18.86,0.21 31.65,0.31 38.34,0.31 1.81,0 13.94,-0.1 36.32,-0.31 l -64.09,81.19 -12.02,16.27 11.24,17.87 63.62,92.01 -37.46,-0.31 c -8.08,0 -21.81,0.1 -41.19,0.31 -13.11,-24.61 -34.71,-61.03 -64.87,-109.26 z"
   style="fill:#f26b35;fill-opacity:1" />&#10;  <path
   id="_3"
   class="fil1"
   d="m 831.28,409.85668 c -1.94,-32.25 -4.27,-58.05 -6.84,-77.4 17.1,7.54 32.41,12.74 45.77,15.62 13.37,2.95 25.1,4.43 35.13,4.43 13.37,0 23.94,-1.94 31.79,-5.83 7.85,-3.89 11.81,-9.56 11.81,-17.17 0,-2.57 -0.39,-5.06 -1.17,-7.39 -0.78,-2.41 -2.18,-5.05 -4.35,-8 -2.18,-2.95 -5.21,-6.14 -9.17,-9.63 l -43.21,-37.38 c -10.1,-8.47 -17.17,-14.61 -21.14,-18.42 -8.08,-7.77 -14.45,-15 -18.96,-21.68 -4.51,-6.69 -7.77,-13.44 -9.87,-20.36 -2.1,-6.92 -3.11,-14.22 -3.11,-21.99 0,-9.25 1.63,-18.34 4.89,-27.2 3.26,-8.86 8.16,-17.17 14.77,-24.94 6.53,-7.69 15.15,-14.38 26.03,-19.97 10.8,-5.67 22.3,-9.48 34.66,-11.5 12.35,-2.100004 25.02,-3.110004 38.16,-3.110004 25.72,0 53.7,2.950004 84.01,8.860004 0.39,10.49 0.93,20.05 1.55,28.75 0.62,8.7 2.1,24.01 4.35,45.85 -14.07,-5.59 -26.89,-9.48 -38.55,-11.66 -11.58,-2.18 -21.6,-3.26 -30,-3.26 -11.89,0 -21.84,2.18 -29.69,6.61 -7.85,4.43 -11.81,9.87 -11.81,16.4 0,3.03 0.62,5.98 1.87,8.86 1.17,2.87 3.5,6.3 6.84,10.18 3.34,3.81 7.77,8.08 13.29,12.74 5.52,4.59 14.15,11.5 25.96,20.59 l 16.48,12.98 c 4.89,3.96 10.18,8.7 15.85,14.3 5.59,5.67 10.49,11.19 14.61,16.63 4.2,5.52 7.3,10.49 9.56,15.08 2.17,4.51 3.88,9.09 4.89,13.76 1.09,4.66 1.63,9.63 1.63,14.92 0,13.68 -3.26,26.65 -9.8,39.01 -6.53,12.43 -15.85,22.61 -27.82,30.54 -12.05,8 -25.26,13.52 -39.63,16.71 -14.38,3.19 -29.53,4.82 -45.46,4.82 -24.64,0 -55.8,-3.57 -93.33,-10.72 z"
   style="fill:#6fb658;fill-opacity:1" />&#10;  <path
   id="_4"
   class="fil1"
   d="m 1084.94,414.51668 3.06,-38.91 4.04,-75.95 1.66,-53.72 c 0.1,-5.8 0.15,-11.56 0.15,-17.36 0,-4.35 -0.05,-11.45 -0.15,-21.4 13.37,0.31 24.09,0.47 32.17,0.47 7.77,0 18.44,-0.26 31.96,-0.67 13.57,-0.47 25.02,-0.73 34.45,-0.73 13.52,0 23.57,0.88 30.05,2.59 6.53,1.71 12.44,4.46 17.67,8.13 5.28,3.73 9.63,8.03 13.06,13 3.42,4.98 6.01,10.62 7.72,16.94 1.71,6.32 2.59,12.8 2.59,19.37 0,13.57 -3.27,26.01 -9.85,37.25 -6.58,11.24 -15.8,19.63 -27.72,25.23 -11.92,5.54 -25.33,8.34 -40.15,8.34 -5.49,0 -11.81,-0.62 -18.96,-1.87 -0.78,-4.61 -2.33,-11.5 -4.51,-20.67 -2.23,-9.17 -4.04,-15.96 -5.44,-20.36 4.45,0.83 9.06,1.24 13.88,1.24 10.21,0 17.77,-2.49 22.8,-7.41 4.98,-4.92 7.46,-10.93 7.46,-18.03 0,-3.47 -0.57,-6.53 -1.66,-9.22 -1.14,-2.69 -2.9,-4.87 -5.33,-6.63 -2.38,-1.71 -5.08,-2.8 -8.03,-3.31 -2.9,-0.52 -6.27,-0.78 -10,-0.78 -3.63,0 -7.41,0.11 -11.35,0.31 l -12.74,0.88 c -1.3,19.53 -2.28,41.29 -3,65.17 -1.24,43.52 -1.92,69.63 -1.92,78.33 v 19.74 l -30.26,-0.31 c -4.25,0 -14.81,0.1 -31.65,0.31 z"
   style="fill:#6fb658;fill-opacity:1" />&#10;  <path
   id="_5"
   class="fil1"
   d="m 1282.38,414.51668 c 2.54,-26.11 4.35,-47.98 5.54,-65.64 1.14,-17.61 2.33,-41.03 3.47,-70.25 1.19,-29.17 1.76,-48.54 1.76,-58.08 l -0.15,-13.37 c 23.88,0.21 52.79,0.31 86.67,0.31 31.24,0 58.8,-0.1 82.69,-0.31 l -0.31,5.03 c -0.1,1.19 -0.36,5.59 -0.72,13.21 l -0.93,16.53 c -0.2,3.52 -0.31,7.1 -0.31,10.78 -19.48,-0.83 -35.85,-1.24 -49.11,-1.24 -14.56,0 -24.4,0.05 -29.48,0.1 -5.13,0.05 -13.06,0.26 -23.89,0.67 l -1.76,34.81 c 11.97,0.31 25.85,0.46 41.7,0.46 5.7,0 20.78,-0.36 45.23,-1.09 -1.04,12.95 -1.97,28.39 -2.9,46.32 -17.51,-0.21 -30.98,-0.31 -40.41,-0.31 -13.99,0 -29.63,0.31 -46.94,0.93 l -1.92,36.99 h 17.46 c 5.18,0 15.85,-0.15 32.02,-0.46 l 31.45,-0.78 c 4.66,-0.1 12.43,-0.52 23.36,-1.24 -1.19,15.02 -2.22,30.57 -3.06,46.63 -24.66,-0.21 -51.7,-0.31 -81.13,-0.31 l -66.78,0.16 z"
   style="fill:#6fb658;fill-opacity:1" />&#10;  <path
   id="_6"
   class="fil1"
   d="m 1720.42,414.51668 c 1.97,-17.82 3.52,-33.88 4.66,-48.13 1.14,-14.3 2.13,-30.88 2.95,-49.69 0.88,-18.86 1.5,-38.7 1.92,-59.63 0.41,-20.93 0.62,-37.56 0.62,-49.89 12.64,0.31 22.85,0.47 30.62,0.47 8.08,0 17.98,-0.26 29.58,-0.67 11.66,-0.47 22.95,-0.73 33.99,-0.73 12.95,0 24.45,0.52 34.61,1.56 7.56,0.67 14.46,2.18 20.67,4.41 6.22,2.23 11.45,4.92 15.7,8.08 4.25,3.21 7.82,6.79 10.62,10.72 2.85,3.94 5.02,8.55 6.63,13.88 1.56,5.29 2.33,10.98 2.33,17.05 0,6.79 -0.88,13.16 -2.59,19.06 -1.71,5.91 -4.4,11.5 -8.13,16.69 -3.68,5.23 -8.34,9.74 -13.94,13.52 -5.65,3.78 -13.52,7.67 -23.62,11.61 l 7.87,19.32 c 2.23,5.34 4.61,10.83 7.15,16.43 l 20.31,44.56 c 0.93,1.92 2.54,5.7 4.87,11.4 -16.73,-0.21 -27.98,-0.31 -33.72,-0.31 -7.31,0 -19.22,0.1 -35.85,0.31 -1.6,-5.28 -4.56,-15.07 -8.81,-29.37 -1.71,-5.96 -3.16,-10.62 -4.4,-13.83 -2.38,-7.2 -6.01,-17.3 -10.72,-30.31 l -15.65,-43.06 c 5.49,1.04 10.83,1.56 16.11,1.56 7.36,0 14.04,-1.09 20.05,-3.31 6.01,-2.23 10.57,-5.65 13.68,-10.31 3.06,-4.61 4.61,-9.48 4.61,-14.66 0,-4.3 -1.14,-8.13 -3.47,-11.4 -2.33,-3.26 -6.01,-5.7 -10.98,-7.3 -5.03,-1.61 -12.74,-2.44 -23.16,-2.44 -3.52,0 -7.2,0.05 -10.98,0.21 -3.78,0.15 -8.19,0.31 -13.26,0.41 -1.35,20.72 -2.49,46.06 -3.52,75.9 -1.04,29.84 -1.71,59.17 -2.02,87.92 -16.89,-0.21 -27.87,-0.31 -32.95,-0.31 -5.85,0 -16.48,0.1 -31.76,0.31 z"
   style="fill:#6fb658;fill-opacity:1" />&#10;  <polygon
   class="fil2"
   points="1586.25,326.6 1507.78,470.45 1472.91,396.35 1584.07,174.04 1699.58,396.35 1662.53,468.27 "
   id="polygon1"
   style="fill:#f26b35;fill-opacity:1"
   transform="translate(0,-83.333336)" />&#10;  <polygon
   class="fil3"
   points="1634.19,520.58 1649.45,487.89 1584.07,372.37 1520.86,496.6 1536.12,520.58 1586.25,424.68 "
   id="polygon2"
   style="fill:#6fb658;fill-opacity:1"
   transform="translate(0,-83.333336)" />&#10; <path
   d="m 87.036619,571.32592 q -0.542535,-10.30817 -1.424155,-16.81859 13.292112,6.03571 24.142816,6.03571 4.34028,0 8.07021,-1.28853 3.79775,-1.35633 5.56099,-3.72992 1.83105,-2.44141 1.83105,-5.42536 0,-2.30577 -0.8138,-4.13683 -1.2207,-2.50922 -4.06901,-5.2219 -3.93338,-3.72993 -14.0381,-12.27486 -4.815,-4.13683 -6.646058,-5.90007 -4.069014,-3.86556 -6.239154,-6.91732 -2.170141,-3.11958 -3.119578,-6.17134 -0.949436,-3.05176 -0.949436,-6.51042 0,-6.37479 3.526478,-11.93578 3.594296,-5.6288 10.647258,-8.74837 7.12077,-3.1874 17.90366,-3.1874 9.69781,0 21.83704,2.37359 0.33908,7.05296 1.35634,16.14042 -10.57944,-4.06901 -19.53127,-4.06901 -6.64606,0 -10.91852,3.05176 -4.20465,2.98394 -4.20465,6.98514 0,1.08507 0.27127,2.30578 0.27127,1.15288 0.8138,2.30577 0.54254,1.08507 1.89887,2.91613 1.42416,1.76324 4.06902,4.20464 2.71267,2.3736 4.61155,3.86557 l 9.42655,7.59549 q 3.18739,2.64486 5.69662,5.15408 2.50922,2.50923 4.27246,4.815 1.83106,2.30578 2.84831,4.4081 1.01725,2.10233 1.49197,4.34028 0.54254,2.17015 0.54254,4.61155 0,5.69662 -2.64486,10.78289 -2.64486,5.01845 -7.59549,8.27366 -4.95064,3.25521 -10.85071,4.47592 -5.90007,1.28852 -12.47831,1.28852 -4.34028,0 -10.10472,-0.74599 -5.764432,-0.74598 -15.190981,-2.84831 z M 201.71499,559.11888 q -0.8138,3.72993 -2.57704,13.83465 -5.69662,1.28852 -8.95183,1.6276 -3.25521,0.33909 -6.10352,0.33909 -5.01845,0 -9.01965,-0.94944 -3.93338,-0.94944 -6.51042,-3.32303 -2.57704,-2.4414 -3.52648,-5.6288 -0.88162,-3.25521 -0.88162,-6.71387 0,-0.88162 0.0678,-2.37359 0.0678,-1.49198 0.54253,-9.63 l 1.55979,-28.21183 h -9.76563 q 0.33908,-4.06902 0.61035,-13.08866 h 10.24035 q 0.4069,-3.93338 0.8138,-13.35993 l 8.0024,-1.55979 q 2.50922,-0.47472 9.69781,-2.23796 -0.47471,9.15528 -0.54253,17.15768 h 17.22549 q -0.47472,9.15528 -0.47472,13.08866 h -17.29331 q -1.42415,27.60147 -1.42415,31.94176 0,4.20464 0.88162,6.51042 0.94944,2.30577 2.98394,3.32303 2.03451,1.01725 4.34028,1.01725 1.69543,0 3.52648,-0.27127 1.89888,-0.27127 6.57824,-1.49197 z M 216.22781,519.446 q 0.94943,-4.88282 1.15288,-6.84951 0.27127,-1.96669 0.88162,-5.96789 9.2231,-2.17014 16.27606,-3.05176 7.05296,-0.88162 13.6312,-0.88162 7.45985,0 13.69901,1.76324 6.23915,1.69542 9.76563,5.49317 3.52648,3.79775 3.52648,10.91852 0,3.86556 -1.08507,19.73472 -1.08507,15.80133 -1.28852,32.68774 -5.15408,-0.13563 -9.49437,-0.13563 -4.13683,0 -9.69781,0.13563 0.88162,-8.20584 1.42415,-18.98873 l 0.88162,-16.88641 q -2.57704,1.69543 -3.93338,2.37359 -1.35634,0.67817 -3.05176,1.28853 -1.69542,0.54253 -5.96789,1.76324 -4.27246,1.15288 -6.8495,2.0345 -2.57704,0.88162 -4.67937,2.03451 -2.03451,1.08507 -3.45866,2.50922 -1.42416,1.35634 -2.10232,2.91613 -0.61036,1.49197 -0.61036,3.25521 0,2.84831 1.62761,4.95064 1.69542,2.0345 4.20465,2.84831 2.50922,0.8138 5.90007,0.8138 2.17014,0 4.54373,-0.33909 2.44141,-0.33908 6.51042,-1.69542 -1.42415,3.86556 -3.32303,11.52887 -4.815,0.81381 -7.66331,1.01726 -2.84831,0.20345 -5.28971,0.20345 -8.54493,0 -14.0381,-2.30578 -5.49317,-2.30577 -8.13803,-7.32422 -2.57704,-5.01845 -2.57704,-10.10472 0,-2.91613 1.01725,-5.76444 1.01725,-2.84831 2.98395,-5.2219 1.96669,-2.37359 5.08626,-4.54373 3.11958,-2.23796 9.01965,-4.27246 5.90007,-2.10233 15.59789,-4.20465 2.57704,-0.54254 5.35753,-1.28852 2.78049,-0.81381 4.4081,-1.55979 1.69542,-0.74599 2.91613,-1.89887 1.2207,-1.22071 1.76324,-2.50923 0.61035,-1.28852 0.61035,-2.64486 0,-2.64486 -1.76324,-4.47591 -1.69542,-1.83106 -4.47592,-2.50923 -2.71267,-0.74598 -6.0357,-0.74598 -12.34268,0 -27.26239,5.90007 z m 115.83126,39.67288 q -0.8138,3.72993 -2.57704,13.83465 -5.69662,1.28852 -8.95183,1.6276 -3.25521,0.33909 -6.10352,0.33909 -5.01845,0 -9.01965,-0.94944 -3.93338,-0.94944 -6.51042,-3.32303 -2.57705,-2.4414 -3.52648,-5.6288 -0.88162,-3.25521 -0.88162,-6.71387 0,-0.88162 0.0678,-2.37359 0.0678,-1.49198 0.54253,-9.63 l 1.55979,-28.21183 H 286.893 q 0.33908,-4.06902 0.61035,-13.08866 h 10.24035 q 0.4069,-3.93338 0.8138,-13.35993 l 8.0024,-1.55979 q 2.50922,-0.47472 9.69781,-2.23796 -0.47472,9.15528 -0.54253,17.15768 h 17.22549 q -0.47472,9.15528 -0.47472,13.08866 h -17.29331 q -1.42415,27.60147 -1.42415,31.94176 0,4.20464 0.88162,6.51042 0.94943,2.30577 2.98394,3.32303 2.03451,1.01725 4.34028,1.01725 1.69542,0 3.52648,-0.27127 1.89887,-0.27127 6.57824,-1.49197 z m 70.86866,-1.2207 q -0.88162,4.00119 -2.50923,14.37718 -7.32422,1.55979 -12.34267,2.10232 -5.01845,0.54254 -10.10472,0.54254 -8.88402,0 -15.93697,-1.76324 -6.98514,-1.76324 -12.27486,-6.44261 -5.28972,-4.74718 -7.79894,-11.59669 -2.50923,-6.8495 -2.50923,-14.37718 0,-8.34148 2.91613,-16.14042 2.91612,-7.86676 8.13802,-12.81739 5.28972,-5.01845 12.0036,-7.05296 6.71387,-2.10233 14.03809,-2.10233 6.91733,0 13.15648,1.76324 6.23916,1.69543 10.4438,5.62881 4.27247,3.93338 6.51043,9.49436 2.30577,5.49317 2.30577,12.27486 0,3.1874 -0.67817,6.57824 l -49.70978,0.0678 q -0.13564,2.50922 -0.13564,4.00119 0,4.54374 1.55979,8.34148 1.55979,3.79775 4.54373,6.44261 2.98395,2.64486 7.12078,3.93338 4.13683,1.2207 8.13802,1.2207 4.67937,0 10.10472,-1.01725 5.49317,-1.01726 13.02085,-3.45866 z m -43.80972,-27.39803 31.73831,0.0678 q 0,-3.25521 -0.20345,-4.815 -0.20345,-1.55979 -0.94944,-3.52648 -0.67817,-2.03451 -1.89887,-3.52648 -1.22071,-1.55979 -2.84831,-2.57704 -1.62761,-1.01726 -3.79775,-1.55979 -2.10232,-0.54254 -4.54373,-0.54254 -2.84831,0 -5.56099,0.88162 -2.64485,0.88162 -4.88281,2.57705 -2.23796,1.69542 -3.66211,3.79774 -1.35634,2.10233 -2.03451,4.06902 -0.67817,1.89887 -1.35634,5.15408 z m 96.16435,42.79246 q 1.28852,-14.37718 1.76323,-23.53246 0.47472,-9.15528 1.22071,-31.26359 0.74599,-22.10831 0.74599,-30.38197 0,-2.50923 -0.0678,-7.39204 8.54493,0.13563 14.17373,0.13563 5.69662,0 14.0381,-0.20345 8.34148,-0.20345 13.76683,-0.20345 7.59549,0 11.39324,0.67817 3.86556,0.61035 6.8495,1.89887 2.98395,1.28852 5.01845,3.1874 2.03451,1.83105 3.45867,4.40809 1.49197,2.50923 2.17014,5.49317 0.74598,2.91613 0.74598,5.96789 0,3.79775 -0.94943,7.25641 -0.88162,3.39084 -2.64486,6.17134 -1.69543,2.71267 -4.0012,4.67936 -2.30577,1.89887 -4.4081,2.98394 -2.10232,1.08508 -5.6288,2.30578 3.18739,0.67817 5.08627,1.35634 1.89887,0.61035 4.06901,1.96669 2.17014,1.28852 4.06901,3.39084 1.96669,2.03451 3.11958,4.34028 1.15289,2.30578 1.76324,5.15409 0.67817,2.78049 0.67817,5.83225 0,6.51042 -2.84831,11.93578 -2.78049,5.42535 -7.73113,8.61274 -4.95063,3.11958 -11.12197,4.20465 -6.10352,1.01725 -26.04169,1.01725 l -16.41169,-0.0678 z m 22.17612,-54.1857 H 488.377 q 6.98514,0 9.35873,-0.33908 2.44141,-0.33909 5.08627,-1.28852 2.64486,-1.01726 4.47592,-3.05177 1.83105,-2.10232 2.64486,-4.54373 0.88162,-2.50922 0.88162,-5.08626 0,-2.50923 -0.94944,-4.74719 -0.88162,-2.23796 -2.78049,-3.66211 -1.89888,-1.49197 -4.61155,-2.10232 -2.64486,-0.67817 -7.79895,-0.67817 h -16.27605 z m -1.6276,40.89359 h 15.39443 q 4.67937,0 7.25641,-0.33908 2.64486,-0.40691 5.01845,-1.35634 2.37359,-0.94944 3.72993,-2.03451 1.35634,-1.08507 2.37359,-2.78049 1.08507,-1.69542 1.69542,-3.79775 0.61036,-2.17014 0.61036,-4.47591 0,-3.11958 -1.08507,-5.49317 -1.08508,-2.37359 -3.25522,-4.06902 -2.10232,-1.76324 -4.95063,-2.50922 -2.84831,-0.8138 -8.68056,-0.8138 h -17.08986 z m 74.12386,-40.5545 q 0.94944,-4.88282 1.15289,-6.84951 0.27127,-1.96669 0.88162,-5.96789 9.2231,-2.17014 16.27606,-3.05176 7.05295,-0.88162 13.63119,-0.88162 7.45986,0 13.69902,1.76324 6.23915,1.69542 9.76563,5.49317 3.52648,3.79775 3.52648,10.91852 0,3.86556 -1.08507,19.73472 -1.08507,15.80133 -1.28852,32.68774 -5.15409,-0.13563 -9.49437,-0.13563 -4.13683,0 -9.69782,0.13563 0.88162,-8.20584 1.42416,-18.98873 l 0.88162,-16.88641 q -2.57704,1.69543 -3.93338,2.37359 -1.35634,0.67817 -3.05176,1.28853 -1.69542,0.54253 -5.96789,1.76324 -4.27246,1.15288 -6.84951,2.0345 -2.57704,0.88162 -4.67936,2.03451 -2.03451,1.08507 -3.45866,2.50922 -1.42416,1.35634 -2.10233,2.91613 -0.61035,1.49197 -0.61035,3.25521 0,2.84831 1.62761,4.95064 1.69542,2.0345 4.20464,2.84831 2.50923,0.8138 5.90007,0.8138 2.17014,0 4.54374,-0.33909 2.4414,-0.33908 6.51042,-1.69542 -1.42416,3.86556 -3.32303,11.52887 -4.815,0.81381 -7.66331,1.01726 -2.84831,0.20345 -5.28972,0.20345 -8.54493,0 -14.0381,-2.30578 -5.49316,-2.30577 -8.13802,-7.32422 -2.57705,-5.01845 -2.57705,-10.10472 0,-2.91613 1.01726,-5.76444 1.01725,-2.84831 2.98394,-5.2219 1.96669,-2.37359 5.08627,-4.54373 3.11958,-2.23796 9.01965,-4.27246 5.90007,-2.10233 15.59788,-4.20465 2.57704,-0.54254 5.35754,-1.28852 2.78049,-0.81381 4.4081,-1.55979 1.69542,-0.74599 2.91612,-1.89887 1.22071,-1.22071 1.76324,-2.50923 0.61035,-1.28852 0.61035,-2.64486 0,-2.64486 -1.76324,-4.47591 -1.69542,-1.83106 -4.47591,-2.50923 -2.71268,-0.74598 -6.0357,-0.74598 -12.34268,0 -27.2624,5.90007 z m 73.0388,53.84661 q 1.55978,-15.39443 2.57704,-34.58662 1.08507,-19.19218 1.2207,-34.38316 6.23916,0.13563 9.96909,0.13563 4.40809,0 9.35873,-0.13563 l -0.74599,11.52887 q 2.10233,-2.98394 3.66211,-4.74718 1.62761,-1.76324 4.06902,-3.45866 2.50922,-1.69543 5.28972,-2.71268 2.84831,-1.01725 6.30697,-1.62761 3.52648,-0.61035 7.32422,-0.61035 6.03571,0 11.52888,1.55979 5.56098,1.49197 8.95183,4.815 3.39084,3.32303 4.47591,7.25641 1.08507,3.93338 1.08507,8.34148 0,1.83105 -0.20345,5.83225 l -1.42415,29.63598 q -0.27127,6.17134 -0.33909,13.15648 -5.35753,-0.13563 -9.15528,-0.13563 -5.15408,0 -10.37598,0.13563 0.54253,-5.90007 1.35633,-20.54852 0.81381,-14.71626 0.81381,-19.46345 0,-5.35753 -1.69543,-8.61274 -1.69542,-3.25521 -5.28971,-4.95064 -3.52648,-1.69542 -7.66331,-1.69542 -4.06902,0 -7.5955,1.55979 -3.52648,1.55979 -6.10352,4.54373 -2.71267,3.05176 -4.20465,7.52768 -1.55978,4.74718 -2.30577,15.6657 -0.67817,9.69782 -1.08507,25.97387 -5.2219,-0.13563 -9.42655,-0.13563 -4.27246,0 -10.37598,0.13563 z m 89.38267,0 1.35634,-17.63239 1.55979,-33.84063 0.74599,-28.95782 q 0.13563,-7.86676 0.13563,-12.13922 7.12077,0.13563 10.10472,0.13563 3.52648,0 9.29091,-0.13563 l -1.42415,22.04049 -1.62761,35.12915 -0.67817,26.24514 -0.0678,9.15528 q -6.03571,-0.13563 -9.49437,-0.13563 -3.93338,0 -9.90127,0.13563 z m 21.63359,-38.58781 13.76683,-16.81859 q 1.76324,-2.17014 4.20465,-5.35754 2.44141,-3.18739 6.17134,-8.20584 7.05296,0.13563 10.30817,0.13563 4.47591,0 11.32542,-0.13563 l -22.31176,25.63478 -4.0012,4.88282 q 4.95064,7.86676 27.46585,38.45218 -6.10352,-0.13563 -10.44381,-0.13563 -4.34028,0 -10.78288,0.13563 -3.93338,-6.4426 -6.44261,-10.30817 -2.44141,-3.93338 -4.54373,-6.8495 L 737.1972,539.65543 q -0.47472,-0.67817 -3.1874,-4.95063 z m 166.28708,21.63359 q -1.49197,7.93458 -2.57704,16.14042 -7.73113,1.35634 -14.17374,1.89887 -6.4426,0.54254 -11.05415,0.54254 -10.17253,0 -19.46345,-2.84831 -9.2231,-2.84831 -16.68296,-8.95183 -7.39204,-6.17134 -10.71507,-14.91972 -3.32302,-8.74838 -3.32302,-19.12437 0,-11.2576 4.00119,-20.81978 4.0012,-9.56219 11.46106,-16.14042 7.52767,-6.57824 17.76803,-9.76564 10.24035,-3.25521 21.36232,-3.25521 10.98634,0 24.00718,2.50923 0.20345,6.0357 0.4069,8.54493 l 0.47472,7.2564 q -7.66331,-2.0345 -12.74958,-2.78049 -5.08626,-0.74599 -9.69781,-0.74599 -7.25641,0 -13.97028,2.23796 -6.64606,2.17014 -11.80014,6.98514 -5.08627,4.815 -7.86676,11.66451 -2.71268,6.78169 -2.71268,14.17373 0,8.8162 3.39084,15.80134 3.39085,6.98514 10.85071,11.32542 7.52767,4.34028 18.58183,4.34028 10.24035,0 24.4819,-4.06901 z m 50.25226,-53.64317 q 7.79895,0 14.91972,2.37359 7.18859,2.30578 12.13923,6.91733 5.01845,4.54373 7.52767,11.18978 2.50923,6.57824 2.50923,13.90247 0,7.73113 -2.64486,14.91972 -2.64486,7.18859 -7.66331,12.47831 -5.01845,5.2219 -12.54613,7.86676 -7.45986,2.57704 -15.93697,2.57704 -7.86676,0 -14.98753,-2.30578 -7.05296,-2.37359 -12.07141,-7.05295 -5.01845,-4.67937 -7.66331,-11.39324 -2.57704,-6.71388 -2.57704,-14.0381 0,-7.45986 2.37359,-14.24155 2.37359,-6.78169 7.39204,-12.07141 5.08627,-5.28972 12.95303,-8.20584 7.86676,-2.91613 16.27605,-2.91613 z m 0,13.97028 q -5.90007,0 -10.57943,2.91613 -4.61155,2.84831 -6.91733,8.54493 -2.23795,5.69662 -2.23795,12.41049 0,5.90007 1.83105,10.51162 1.89888,4.61155 6.10352,7.45986 4.27247,2.84831 10.10472,2.84831 5.96789,0 10.4438,-2.91613 4.54374,-2.98394 6.78169,-8.68056 2.30578,-5.76444 2.30578,-12.68176 0,-5.6288 -1.76324,-10.24035 -1.76324,-4.61155 -5.96789,-7.39204 -4.13683,-2.7805 -10.10472,-2.7805 z m 48.76037,56.62711 q 1.01729,-11.46105 2.44139,-41.16485 1.492,-29.77162 1.8311,-51.40521 7.0529,0.13563 10.0369,0.13563 4.0012,0 9.7656,-0.13563 l -1.6276,24.75316 -2.3736,55.20296 -0.2713,12.61394 q -5.5609,-0.13563 -9.4265,-0.13563 -1.2885,0 -10.37599,0.13563 z m 73.85259,-70.59739 q 7.799,0 14.9197,2.37359 7.1886,2.30578 12.1393,6.91733 5.0184,4.54373 7.5276,11.18978 2.5093,6.57824 2.5093,13.90247 0,7.73113 -2.6449,14.91972 -2.6449,7.18859 -7.6633,12.47831 -5.0185,5.2219 -12.5461,7.86676 -7.4599,2.57704 -15.937,2.57704 -7.8668,0 -14.9875,-2.30578 -7.053,-2.37359 -12.0714,-7.05295 -5.0185,-4.67937 -7.6634,-11.39324 -2.577,-6.71388 -2.577,-14.0381 0,-7.45986 2.3736,-14.24155 2.3736,-6.78169 7.392,-12.07141 5.0863,-5.28972 12.9531,-8.20584 7.8667,-2.91613 16.276,-2.91613 z m 0,13.97028 q -5.9001,0 -10.5794,2.91613 -4.6116,2.84831 -6.9173,8.54493 -2.238,5.69662 -2.238,12.41049 0,5.90007 1.8311,10.51162 1.8988,4.61155 6.1035,7.45986 4.2724,2.84831 10.1047,2.84831 5.9679,0 10.4438,-2.91613 4.5437,-2.98394 6.7817,-8.68056 2.3058,-5.76444 2.3058,-12.68176 0,-5.6288 -1.7633,-10.24035 -1.7632,-4.61155 -5.9679,-7.39204 -4.1368,-2.7805 -10.1047,-2.7805 z m 48.2178,56.62711 q 1.5598,-15.39443 2.5771,-34.58662 1.0851,-19.19218 1.2207,-34.38316 6.2392,0.13563 9.9691,0.13563 4.4081,0 9.3587,-0.13563 l -0.746,11.52887 q 2.1023,-2.98394 3.6621,-4.74718 1.6276,-1.76324 4.0691,-3.45866 2.5092,-1.69543 5.2897,-2.71268 2.8483,-1.01725 6.3069,-1.62761 3.5265,-0.61035 7.3243,-0.61035 6.0357,0 11.5288,1.55979 5.561,1.49197 8.9519,4.815 3.3908,3.32303 4.4759,7.25641 1.0851,3.93338 1.0851,8.34148 0,1.83105 -0.2035,5.83225 l -1.4241,29.63598 q -0.2713,6.17134 -0.3391,13.15648 -5.3576,-0.13563 -9.1553,-0.13563 -5.1541,0 -10.376,0.13563 0.5425,-5.90007 1.3563,-20.54852 0.8138,-14.71626 0.8138,-19.46345 0,-5.35753 -1.6954,-8.61274 -1.6954,-3.25521 -5.2897,-4.95064 -3.5265,-1.69542 -7.6633,-1.69542 -4.069,0 -7.5955,1.55979 -3.5265,1.55979 -6.1035,4.54373 -2.7127,3.05176 -4.2047,7.52768 -1.5598,4.74718 -2.3057,15.6657 -0.6782,9.69782 -1.0851,25.97387 -5.2219,-0.13563 -9.4266,-0.13563 -4.2724,0 -10.376,0.13563 z m 80.9056,31.19578 q -1.2207,-10.17254 -1.9667,-14.64845 6.5104,3.05176 12.2749,3.05176 1.7632,0 3.5943,-0.47472 1.831,-0.4069 3.3908,-1.22071 1.0173,-0.54253 2.0345,-1.55978 1.0851,-1.01726 2.9162,-3.72993 1.831,-2.71268 3.1874,-5.35754 1.085,-2.23796 2.2379,-5.6288 l -14.1059,-41.30049 -10.3082,-29.2969 q 7.1208,0.13563 10.2404,0.13563 3.5943,0 9.4265,-0.13563 1.4242,5.6288 2.6449,9.76563 l 6.4426,21.29451 q 2.9839,9.83345 4.2725,14.78408 0.8138,3.25521 1.8988,8.61275 2.0345,-6.17134 3.5265,-10.0369 2.6449,-7.05296 7.392,-18.8531 l 6.5783,-16.20824 q 1.7632,-4.34028 3.5943,-9.35873 6.1035,0.13563 9.2909,0.13563 2.9161,0 9.7656,-0.13563 l -26.1095,58.52598 -11.3254,25.83824 q -2.3736,5.01845 -4.5437,7.79894 -1.7633,2.37359 -3.8656,4.06902 -2.0345,1.6276 -4.3403,2.71267 -2.9161,1.35634 -6.3069,2.17014 -3.8656,0.81381 -7.799,0.81381 -2.2379,0 -6.2391,-0.40691 -4.0012,-0.4069 -7.799,-1.35633 z m 76.0906,-15.12317 q 4.6115,-12.68176 10.1725,-29.43254 7.3921,0.13564 10.4438,0.13564 2.4414,0 10.0369,-0.13564 -2.7126,4.61155 -5.7644,9.49437 -2.984,4.815 -6.1713,10.30817 -3.1196,5.49317 -5.6288,9.56218 -4.2725,-0.13563 -6.4427,-0.13563 -2.6448,0 -6.646,0.20345 z m 98.877,-16.07261 1.492,-19.80253 1.4919,-29.50035 0.9495,-29.02563 h -4.7472 l -4.4081,0.0678 -4.2047,0.0678 -15.6657,0.47472 q 0.5426,-9.76564 0.6104,-14.8519 19.5312,0.13563 40.8936,0.13563 l 24.3462,-0.0678 13.0209,-0.0678 q -0.6782,9.56218 -0.6782,14.71626 -12.2748,-0.61035 -23.5325,-0.61035 h -5.2219 l -0.8138,12.41049 -1.9666,47.7431 -0.1357,8.00239 q -0.068,4.95064 -0.068,10.30817 l -10.3082,-0.13563 q -1.6954,0 -11.0541,0.13563 z m 129.0555,0 q -5.9679,-0.13563 -9.1553,-0.13563 -4.0012,0 -9.0874,0.13563 l 0.1356,-11.2576 q -1.8989,2.84831 -3.323,4.61155 -1.4242,1.69542 -3.7299,3.39084 -2.3058,1.62761 -5.0185,2.64486 -2.7127,0.94944 -6.2391,1.55979 -3.4587,0.67817 -7.3921,0.67817 -7.5955,0 -13.2243,-2.17014 -5.6288,-2.23796 -8.9518,-6.71388 -3.2552,-4.47591 -3.2552,-12.81739 v -1.42415 l 1.085,-17.49676 1.0173,-23.05775 q 0.068,-2.78049 0.068,-6.91732 6.4426,0.13563 10.1047,0.13563 3.8656,0 9.3588,-0.13563 l -2.238,30.9245 q -0.2034,3.5943 -0.3391,6.10352 -0.068,2.44141 -0.068,3.52648 0,4.88282 1.4242,8.13803 1.4919,3.18739 5.0862,4.88282 3.6621,1.69542 7.799,1.69542 3.9333,0 7.4598,-1.49197 3.1874,-1.35634 5.4254,-3.79775 2.3058,-2.44141 3.8655,-6.57824 1.1529,-2.98394 1.7633,-8.27366 0.4747,-3.72993 0.8816,-12.81739 0.5425,-10.98634 0.746,-22.31176 6.7139,0.13563 10.2403,0.13563 4.0012,0 9.0197,-0.13563 -0.8138,9.69781 -1.6954,24.27845 -0.8817,14.51281 -1.2207,24.00718 -0.3391,9.42655 -0.5426,20.68415 z m 59.1364,-14.17373 q -0.8138,3.72993 -2.577,13.83465 -5.6967,1.28852 -8.9519,1.6276 -3.2552,0.33909 -6.1035,0.33909 -5.0184,0 -9.0196,-0.94944 -3.9334,-0.94944 -6.5105,-3.32303 -2.577,-2.4414 -3.5264,-5.6288 -0.8817,-3.25521 -0.8817,-6.71387 0,-0.88162 0.068,-2.37359 0.068,-1.49198 0.5425,-9.63 l 1.5598,-28.21183 h -9.7657 q 0.3391,-4.06902 0.6104,-13.08866 h 10.2403 q 0.4069,-3.93338 0.8138,-13.35993 l 8.0024,-1.55979 q 2.5093,-0.47472 9.6979,-2.23796 -0.4748,9.15528 -0.5426,17.15768 h 17.2255 q -0.4747,9.15528 -0.4747,13.08866 h -17.2933 q -1.4242,27.60147 -1.4242,31.94176 0,4.20464 0.8817,6.51042 0.9494,2.30577 2.9839,3.32303 2.0345,1.01725 4.3403,1.01725 1.6954,0 3.5265,-0.27127 1.8988,-0.27127 6.5782,-1.49197 z m 12.953,-66.59619 q 0.2713,-6.98514 0.2713,-10.71507 v -2.17014 q 6.1713,0.13563 10.0369,0.13563 5.2897,0 9.8334,-0.13563 -0.2034,1.69542 -0.2712,3.86556 l -0.3391,9.01965 q -5.1541,-0.13564 -9.4944,-0.13564 -4.3403,0 -10.0369,0.13564 z m -3.6621,80.76992 q 1.0172,-10.17253 1.4241,-17.02204 0.6782,-10.8507 1.1529,-25.02443 0.5426,-14.17374 0.746,-26.92331 6.6461,0.13563 9.9691,0.13563 3.0518,0 9.9013,-0.13563 -0.9495,11.80014 -1.5598,22.51521 -0.5426,10.71507 -0.8138,24.54971 -0.2713,13.83465 -0.2713,21.90486 -6.1713,-0.13563 -9.9013,-0.13563 -3.5264,0 -10.6472,0.13563 z m 91.0781,-15.6657 q -0.339,2.78049 -1.0172,6.30697 -0.6782,3.52648 -1.4242,8.74838 -9.6978,2.23796 -19.1243,2.23796 -5.4932,0 -10.5795,-1.01726 -5.0862,-1.01725 -9.4943,-3.59429 -4.3403,-2.64486 -7.6633,-6.91732 -3.3231,-4.27247 -5.0185,-10.30817 -1.6276,-6.10352 -1.6276,-12.54613 0,-8.54493 2.7127,-16.41169 2.7805,-7.86676 8.0702,-12.81739 5.2897,-5.01845 11.7323,-6.78169 6.5104,-1.83106 14.445,-1.83106 4.4081,0 9.0875,0.54254 4.6793,0.47471 11.0541,2.0345 l 1.0173,14.8519 q -10.1047,-3.45866 -17.6324,-3.45866 -4.6116,0 -8.7484,1.55979 -4.069,1.55979 -7.053,4.95063 -2.9161,3.32303 -4.2046,7.73113 -1.2207,4.4081 -1.2207,9.01965 0,6.4426 1.9667,11.18979 2.0345,4.67936 6.9173,7.2564 4.8828,2.57705 11.122,2.57705 3.0517,0 7.392,-0.74599 4.4081,-0.8138 9.2909,-2.57704 z m 50.9305,-54.93169 q 7.7989,0 14.9197,2.37359 7.1886,2.30578 12.1392,6.91733 5.0184,4.54373 7.5277,11.18978 2.5092,6.57824 2.5092,13.90247 0,7.73113 -2.6449,14.91972 -2.6448,7.18859 -7.6633,12.47831 -5.0184,5.2219 -12.5461,7.86676 -7.4599,2.57704 -15.937,2.57704 -7.8667,0 -14.9875,-2.30578 -7.053,-2.37359 -12.0714,-7.05295 -5.0185,-4.67937 -7.6633,-11.39324 -2.5771,-6.71388 -2.5771,-14.0381 0,-7.45986 2.3736,-14.24155 2.3736,-6.78169 7.3921,-12.07141 5.0862,-5.28972 12.953,-8.20584 7.8668,-2.91613 16.2761,-2.91613 z m 0,13.97028 q -5.9001,0 -10.5795,2.91613 -4.6115,2.84831 -6.9173,8.54493 -2.238,5.69662 -2.238,12.41049 0,5.90007 1.8311,10.51162 1.8989,4.61155 6.1035,7.45986 4.2725,2.84831 10.1047,2.84831 5.9679,0 10.4438,-2.91613 4.5438,-2.98394 6.7817,-8.68056 2.3058,-5.76444 2.3058,-12.68176 0,-5.6288 -1.7632,-10.24035 -1.7633,-4.61155 -5.9679,-7.39204 -4.1369,-2.7805 -10.1047,-2.7805 z m 48.6247,56.62711 1.9667,-32.21302 0.5426,-18.71747 q 0.1356,-5.76443 0.1356,-11.59669 0,-1.01725 -0.1356,-6.4426 6.3069,0.13563 9.2909,0.13563 3.4587,0 9.1553,-0.13563 l -0.3391,9.56218 q 2.577,-3.66211 4.4081,-5.42535 1.831,-1.83106 4.069,-3.11958 2.3058,-1.28852 5.0863,-1.96669 2.7805,-0.67817 5.6966,-0.67817 2.7127,0 5.561,0.67817 0,6.30697 0.6103,16.00479 -4.0012,-1.08507 -7.2564,-1.08507 -3.9334,0 -6.9851,1.2207 -2.984,1.15289 -5.4254,3.5943 -2.3736,2.37359 -3.9334,5.90007 -1.2885,2.84831 -1.8988,7.39204 -0.5426,3.52648 -0.9495,12.07141 -0.3391,8.54493 -0.3391,16.81859 0,3.18739 0.2035,8.00239 -5.1541,-0.13563 -9.4266,-0.13563 -4.2046,0 -10.0369,0.13563 z m 57.6444,-80.76992 q 0.2713,-6.98514 0.2713,-10.71507 v -2.17014 q 6.1713,0.13563 10.0369,0.13563 5.2897,0 9.8334,-0.13563 -0.2034,1.69542 -0.2712,3.86556 l -0.3391,9.01965 q -5.1541,-0.13564 -9.4944,-0.13564 -4.3403,0 -10.0369,0.13564 z m -3.6621,80.76992 q 1.0172,-10.17253 1.4241,-17.02204 0.6782,-10.8507 1.1529,-25.02443 0.5426,-14.17374 0.746,-26.92331 6.6461,0.13563 9.9691,0.13563 3.0518,0 9.9013,-0.13563 -0.9495,11.80014 -1.5598,22.51521 -0.5426,10.71507 -0.8138,24.54971 -0.2713,13.83465 -0.2713,21.90486 -6.1713,-0.13563 -9.9013,-0.13563 -3.5264,0 -10.6472,0.13563 z m 36.5532,0 q 1.5598,-15.39443 2.5771,-34.58662 1.085,-19.19218 1.2207,-34.38316 6.2391,0.13563 9.9691,0.13563 4.4081,0 9.3587,-0.13563 l -0.746,11.52887 q 2.1023,-2.98394 3.6621,-4.74718 1.6276,-1.76324 4.069,-3.45866 2.5093,-1.69543 5.2898,-2.71268 2.8483,-1.01725 6.3069,-1.62761 3.5265,-0.61035 7.3242,-0.61035 6.0358,0 11.5289,1.55979 5.561,1.49197 8.9519,4.815 3.3908,3.32303 4.4759,7.25641 1.085,3.93338 1.085,8.34148 0,1.83105 -0.2034,5.83225 l -1.4242,29.63598 q -0.2712,6.17134 -0.3391,13.15648 -5.3575,-0.13563 -9.1552,-0.13563 -5.1541,0 -10.376,0.13563 0.5425,-5.90007 1.3563,-20.54852 0.8138,-14.71626 0.8138,-19.46345 0,-5.35753 -1.6954,-8.61274 -1.6954,-3.25521 -5.2897,-4.95064 -3.5265,-1.69542 -7.6633,-1.69542 -4.069,0 -7.5955,1.55979 -3.5265,1.55979 -6.1035,4.54373 -2.7127,3.05176 -4.2047,7.52768 -1.5598,4.74718 -2.3058,15.6657 -0.6781,9.69782 -1.085,25.97387 -5.2219,-0.13563 -9.4266,-0.13563 -4.2724,0 -10.376,0.13563 z"
   id="text2-4"
   style="font-size:138.889px;font-family:'Eras Demi ITC';-inkscape-font-specification:'Eras Demi ITC, Normal';text-align:center;text-anchor:middle;fill:#f26b35;stroke-width:10.4167"
   aria-label="State Bank Colony, Tuticorin" /></g>&#10;</svg>
