<svg xmlns="http://www.w3.org/2000/svg" xmlns:xlink="http://www.w3.org/1999/xlink" xmlns:xodm="http://www.corel.com/coreldraw/odm/2003" xml:space="preserve" version="1.1" style="shape-rendering:geometricPrecision; text-rendering:geometricPrecision; image-rendering:optimizeQuality; fill-rule:evenodd; clip-rule:evenodd" viewBox="705.68 822.48 9643.86 2703.79">
 <defs>
  <style type="text/css">
   <![CDATA[
    .fil0 {fill:#0E2958}
    .fil1 {fill:#EF233C}
    .fil3 {fill:#E52339;fill-rule:nonzero}
    .fil4 {fill:#E42330;fill-rule:nonzero}
    .fil2 {fill:#252F57;fill-rule:nonzero}
   ]]>
  </style>
 </defs>
 <g id="Layer_x0020_1">
  <metadata id="CorelCorpID_0Corel-Layer"/>
  <g id="_3026138015136">
   <path class="fil0" d="M1989.88 1546.37l271.44 2.78c-3.28,20.15 -12.84,34.53 -22.12,50.38 -0.45,0.77 -1.03,1.8 -1.48,2.57 -5.33,9.26 -3.33,7.25 -10.87,17.48l-160.24 280.13c-9.19,23.08 -27.12,43 -39.61,68.44 -18.01,36.68 -41.87,68.8 -60.84,105.46l-58.91 106.61c-24.76,37.81 -62.72,99.47 -79.39,138.53 -8.69,20.38 -20.81,33.84 -30.92,54l-49.48 87.41c-8.35,19.09 -21.54,34.25 -33.17,51.63l-27.95 53.07c-10.65,15.44 -13.42,20.53 -21.74,34.68l-19.96 36.19c-1.71,2.38 -2.17,2.69 -4.4,7.46 -3.19,6.83 0.17,3.18 -4.48,11.85 -7.92,14.79 -2.35,3.22 -12.1,11.96 -20.12,-24.06 -269.35,-463.06 -272.73,-469.15l-269.14 -472.34c-125.14,-4.2 -250.9,-0.48 -376.11,-0.48l19.06 0.3c12.21,45.14 178.09,318.78 216.36,389.81 70.54,130.92 149.93,260.42 218.69,390.92l263.88 466.51 399.43 -5.79c12.09,-5.13 134.87,-234.66 153.77,-265.35 13.94,-22.65 23.78,-43.92 38.3,-66.54l236.54 -417.44c29.77,-47.93 106.99,-175.23 125.64,-217.33 3.48,-7.85 2.91,-8.55 7.45,-16.37l183.7 -317.02c31.39,-50.02 62.93,-113.02 94.44,-167.58l94.46 -168.05c30.69,-40.83 128.83,-229.33 172.69,-299.58l77.14 -132.87c11.67,-22.47 22.09,-48.54 33.33,-68.05 -23.3,11.2 -48.24,23.69 -67.62,37.68l-227.65 155.84c-9.74,6.14 -22.14,17.2 -32.4,24.19 -14.47,9.86 -18.31,10.9 -32.94,23.55 -29.88,25.85 -68.68,40.34 -99.63,66.02l-95.76 69.48c-28.77,17.01 -60.48,33.29 -85.33,55.91l-102.08 71.31c-0.75,0.48 -1.79,1.06 -2.57,1.53l-189.37 129.73c-49.43,26.31 -71.54,49.5 -101.9,68.09 -9.93,6.08 -7.46,4.21 -13.44,12.41z"/>
   <path class="fil1" d="M1986.26 2999.11l241.02 -1.14c37.92,0 109.97,10.83 129.94,-12.69 11.86,-13.97 18.35,-27.86 29.23,-47.59l236.32 -413.85c7.14,-10.46 9.3,-13.06 15.46,-24.78 8.16,-15.54 18.44,-33.42 27.64,-49.07l223.05 -390.51c48.6,-79.35 92.12,-163.93 138.62,-244.6l110.82 -196.04c62.23,-100.17 48.17,-70.36 158.47,-72.16l232.04 -0.64c2.37,-21.03 -58.33,-153.52 -69.92,-180.68 -34.94,-81.83 -207.59,-525.15 -226.69,-542.88 -18.57,8.72 -27.26,39.7 -37.92,57.65l-22.72 37.83c-19.46,37.74 -43.11,65.5 -59.94,105.91l-58.26 102.41c-6.52,12.96 -11.85,24.09 -17.79,34.69l-71.35 118.42c-8.56,10.97 -3.89,5.65 -9.37,19.05 -10.97,26.79 -68.41,115.78 -87.17,150.44l-258.65 451.87c-2.91,4.55 -1.5,2.83 -4.17,7.69 -3.45,6.27 -3.38,6.05 -5.95,10.41 -6.56,11.09 -10.48,22.25 -18.81,33.73l-119.35 207.66c-12.32,17.07 -18.19,35.35 -27.43,53.11 -8.47,16.27 -15.26,17.58 -22.77,34.09 -6.6,14.5 -8.5,23.66 -17.04,35.37l-41.45 67.56c-16.97,18.97 -30.13,45.06 -39.78,69.18l-45.07 81.95c-0.24,0.48 -0.72,1.55 -0.95,2.01 -20.38,40.96 -47.51,75.92 -67.13,118.06l-38.09 62.35c-9.74,12.41 -11.18,23.58 -18.07,38.15l-50.43 82.63c-11.31,19.82 -18.52,38.42 -32.38,57.11 -12.64,17.06 -5.34,11.13 -11.09,21.01 -7.38,12.68 -6.57,4.72 -14.39,21.91 -13.32,29.26 -45.28,66.74 -48.44,94.37z"/>
   <path class="fil1" d="M1621.87 2360.51c10.95,-7.37 11.25,-11.68 18.61,-23.69l47.69 -81.46c10.18,-16.74 20.42,-38.02 30.99,-53.83 13.45,-20.1 20.57,-35.27 31.39,-53.41 12.12,-20.31 60.81,-91.12 55.15,-109.87 -2.35,-7.8 -24.66,-44.22 -30.49,-54.58 -9.3,-16.49 -19.94,-37.19 -30.7,-54.21 -6.9,-10.93 -7.88,-14.13 -14.5,-25.8 -7.54,-13.29 -9.45,-12.59 -17.18,-27.38l-60.88 -108.39c-8.85,-16.1 -16.59,-40.88 -41.96,-42.99l-342.42 0.99c-2.53,32.74 61.82,124.82 81.38,162.87l263.76 462.99c6.74,8.97 -0.23,2.89 9.16,8.75z"/>
  </g>
  <path id="Vanigam" class="fil2" d="M3564.1 3010l-137 0 0 -205.91 -481.49 0 0 205.91 -137 0 0 -419.61c0,-61.11 9.53,-117.63 28.41,-168.96 19.06,-51.53 45.31,-95.87 79.11,-132.81 33.62,-37.15 73.53,-65.91 119.56,-86.68 46.02,-20.57 96.19,-30.96 150.67,-30.96l308.7 0c9.35,0 18.34,2 26.79,5.79 8.45,4 15.82,9.39 22.12,16.38 6.29,6.99 11.33,15.18 14.74,24.56 3.59,9.39 5.4,19.37 5.4,29.96l0 762.33zm-618.49 -358.1l481.49 0 0 -328.94 -240.74 0c-4.31,0 -13.13,0.8 -26.61,2.2 -13.48,1.4 -29.13,4.79 -46.93,10.19 -17.62,5.39 -36.31,13.78 -56.09,25.17 -19.6,11.38 -37.76,26.96 -54.3,46.73 -16.36,19.97 -30.03,44.94 -40.81,74.7 -10.61,29.76 -16,65.91 -16,108.45l0 61.52z"/>
  <path id="_1" class="fil2" d="M4477.98 2945.09c0,10.78 -1.98,20.97 -5.57,30.36 -3.77,9.39 -8.63,17.57 -14.74,24.37 -6.11,6.79 -13.48,12.18 -21.93,15.98 -8.45,4 -17.26,5.99 -26.79,5.99 -8.45,0 -16.9,-1.8 -25.53,-5.39 -8.63,-3.39 -16.37,-9.19 -23.02,-16.98l-500.37 -580.39 0 590.98 -137 0 0 -774.12c0,-15.58 3.96,-29.76 11.87,-42.34 7.91,-12.78 17.98,-22.17 30.39,-28.36 12.94,-5.99 26.25,-7.39 39.91,-4.39 13.84,2.8 25.53,9.98 35.42,21.17l500.36 579.99 0 -590.97 137 0 0 774.12z"/>
  <polygon id="_2" class="fil2" points="4775,3010 4638,3010 4638,2170.97 4775,2170.97 "/>
  <path id="_3" class="fil2" d="M5680.44 2933.31c0,10.98 -1.8,21.17 -5.21,30.56 -3.59,9.19 -8.45,17.37 -14.56,24.17 -6.11,6.79 -13.48,12.18 -21.93,16.18 -8.27,3.8 -17.44,5.79 -27.33,5.79l-494.07 0c-12.58,0 -26.25,-1.6 -40.81,-4.99 -14.56,-3.2 -28.94,-8.39 -43.15,-15.58 -14.2,-6.99 -27.87,-15.98 -40.81,-27.16 -13.13,-10.98 -24.45,-24.57 -34.52,-40.35 -10.07,-15.78 -17.98,-34.15 -23.91,-54.92 -6.11,-20.97 -8.99,-44.54 -8.99,-70.5l0 -412.03c0,-13.98 1.44,-29.16 4.5,-45.33 2.88,-16.18 7.55,-32.16 13.85,-47.93 6.29,-15.78 14.56,-30.96 24.81,-45.34 10.25,-14.38 22.3,-27.16 36.68,-38.35 14.2,-11.19 30.56,-19.97 49.26,-26.56 18.52,-6.79 39.55,-9.98 63.11,-9.98l556.82 0 0 151.99 -556.82 0c-17.98,0 -31.65,5.39 -41,15.98 -9.52,10.39 -14.38,25.96 -14.38,46.74l0 410.83c0,19.37 4.86,34.55 14.56,45.33 9.71,10.59 23.19,15.98 40.81,15.98l426.11 0 0 -190.73 -364.44 0 0 -153.19 432.4 0c9.89,0 19.06,2 27.33,5.99 8.45,4.19 15.82,9.78 21.93,16.78 6.11,6.99 10.97,15.18 14.56,24.17 3.42,9.19 5.21,19.17 5.21,29.56l0 342.92z"/>
  <path id="_4" class="fil2" d="M6564.31 3010l-137 0 0 -205.91 -481.49 0 0 205.91 -137 0 0 -419.61c0,-61.11 9.53,-117.63 28.41,-168.96 19.06,-51.53 45.31,-95.87 79.11,-132.81 33.62,-37.15 73.53,-65.91 119.56,-86.68 46.02,-20.57 96.19,-30.96 150.67,-30.96l308.7 0c9.35,0 18.34,2 26.79,5.79 8.45,4 15.82,9.39 22.11,16.38 6.29,6.99 11.33,15.18 14.74,24.56 3.59,9.39 5.39,19.37 5.39,29.96l0 762.33zm-618.49 -358.1l481.49 0 0 -328.94 -240.74 0c-4.32,0 -13.13,0.8 -26.61,2.2 -13.48,1.4 -29.13,4.79 -46.93,10.19 -17.62,5.39 -36.31,13.78 -56.09,25.17 -19.6,11.38 -37.76,26.96 -54.3,46.73 -16.36,19.97 -30.03,44.94 -40.81,74.7 -10.61,29.76 -16,65.91 -16,108.45l0 61.52z"/>
  <path id="_5" class="fil2" d="M7602.44 3010l-137.9 0 0 -499.7 -242.9 474.54c-5.94,12.19 -14.39,21.17 -24.99,27.56 -10.79,6.19 -22.3,9.39 -34.52,9.39 -12.05,0 -23.19,-3.2 -33.44,-9.39 -10.43,-6.39 -18.52,-15.38 -24.45,-27.56l-243.98 -474.54 0 499.7 -137 0 0 -774.12c0,-17.57 4.67,-33.15 14.02,-46.74 9.35,-13.78 21.58,-22.97 36.68,-27.56 7.37,-2 14.74,-2.6 22.11,-2 7.37,0.6 14.38,2.2 21.22,5.19 6.83,3 13.12,6.99 18.69,12.38 5.76,5.19 10.43,11.59 14.21,18.98l311.94 601.96 311.76 -601.96c8.09,-14.78 19.24,-25.37 33.44,-31.56 14.2,-6.39 29.13,-7.39 44.59,-2.99 14.74,4.59 26.79,13.78 36.32,27.56 9.53,13.58 14.2,29.16 14.2,46.74l0 774.12z"/>
  <path id="_6" class="fil3" d="M8437.76 3010l-494.07 0c-12.59,0 -26.25,-1.6 -40.81,-4.99 -14.56,-3.2 -28.94,-8.39 -43.15,-15.58 -14.2,-6.99 -27.87,-15.98 -40.81,-27.16 -13.13,-10.98 -24.46,-24.57 -34.52,-40.35 -10.07,-15.78 -17.98,-34.15 -23.91,-54.92 -6.11,-20.97 -8.99,-44.54 -8.99,-70.5l0 -412.03c0,-13.98 1.44,-29.16 4.49,-45.33 2.88,-16.18 7.56,-32.16 13.85,-47.93 6.29,-15.78 14.56,-30.96 24.81,-45.34 10.25,-14.38 22.3,-27.16 36.68,-38.35 14.2,-11.19 30.57,-19.97 49.26,-26.56 18.52,-6.79 39.56,-9.98 63.11,-9.98l494.07 0 0 151.99 -494.07 0c-17.98,0 -31.65,5.39 -41,15.98 -9.53,10.39 -14.38,25.96 -14.38,46.74l0 410.83c0,19.37 4.85,34.55 14.56,45.33 9.71,10.59 23.19,15.98 40.81,15.98l494.07 0 0 152.19z"/>
  <path id="_7" class="fil3" d="M9322.16 2452.98c0,34.75 -3.95,65.71 -11.69,93.07 -7.73,27.16 -18.16,51.33 -31.28,72.3 -13.12,20.77 -28.41,38.55 -45.67,53.53 -17.08,14.78 -35.06,26.96 -53.94,36.55 -18.7,9.59 -37.76,16.38 -56.81,20.77 -19.24,4.19 -37.22,6.39 -54.12,6.39l286.05 274.42 -211.61 0 -285.51 -274.42 -98.53 0 0 -152.19 309.61 0c17.26,-1.6 33.08,-5.59 47.29,-11.98 14.2,-6.39 26.43,-15.18 36.85,-25.96 10.25,-10.98 18.34,-24.17 23.91,-39.54 5.57,-15.38 8.45,-32.96 8.45,-52.93l0 -96.06c0,-8.59 -0.89,-14.98 -2.87,-19.57 -1.98,-4.39 -4.49,-7.79 -7.37,-9.79 -3.06,-2.2 -6.11,-3.59 -9.53,-3.99 -3.42,-0.4 -6.47,-0.6 -9.17,-0.6l-452 0 0 687.04 -137 0 0 -762.33c0,-10.59 1.8,-20.57 5.39,-29.96 3.42,-9.39 8.27,-17.57 14.38,-24.56 6.11,-6.99 13.49,-12.38 21.94,-16.38 8.45,-3.8 17.62,-5.79 27.33,-5.79l519.96 0c30.57,0 56.28,6.19 77.31,18.37 21.21,12.38 38.3,27.76 51.42,46.33 13.13,18.37 22.65,38.35 28.41,59.92 5.93,21.37 8.81,41.54 8.81,60.31l0 97.06z"/>
  <path id="_8" class="fil3" d="M10338.71 3010l-137.9 0 0 -499.7 -242.9 474.54c-5.93,12.19 -14.39,21.17 -24.99,27.56 -10.79,6.19 -22.29,9.39 -34.52,9.39 -12.05,0 -23.19,-3.2 -33.44,-9.39 -10.43,-6.39 -18.52,-15.38 -24.45,-27.56l-243.98 -474.54 0 499.7 -137 0 0 -774.12c0,-17.57 4.68,-33.15 14.03,-46.74 9.35,-13.78 21.57,-22.97 36.68,-27.56 7.37,-2 14.74,-2.6 22.11,-2 7.37,0.6 14.38,2.2 21.22,5.19 6.83,3 13.13,6.99 18.7,12.38 5.76,5.19 10.43,11.59 14.2,18.98l311.94 601.96 311.76 -601.96c8.09,-14.78 19.24,-25.37 33.44,-31.56 14.2,-6.39 29.13,-7.39 44.59,-2.99 14.74,4.59 26.79,13.78 36.32,27.56 9.53,13.58 14.2,29.16 14.2,46.74l0 774.12z"/>
  <path class="fil4" d="M1624.61 3366.26c0,16.22 -3.94,30.67 -11.81,43.33 -7.87,12.67 -18.21,21 -31.02,25l-13.46 -30c7.5,-2.44 13.73,-7.22 18.67,-14.33 4.94,-7.11 7.41,-15.11 7.41,-24 0,-12.89 -2.75,-23.33 -8.24,-31.33 -5.13,-8 -12.54,-12 -22.24,-12 -6.78,0 -10.8,1.11 -12.08,3.33 10.07,12.22 15.1,29.44 15.1,51.67 0,15.11 -3.75,28.06 -11.26,38.83 -7.51,10.78 -16.57,16.17 -27.19,16.17 -10.61,0 -19.45,-5.28 -26.5,-15.83 -7.05,-10.56 -10.57,-23.61 -10.57,-39.17 0,-23.33 4.58,-40.56 13.73,-51.67 -6.22,-3.33 -13.18,-5 -20.87,-5 -8.06,0 -15.29,1.33 -21.69,4 -6.41,2.67 -10.98,6.33 -13.73,11 10.98,0 20.37,4.72 28.14,14.17 7.78,9.44 11.67,20.83 11.67,34.17 0,13.33 -3.89,24.72 -11.67,34.17 -7.78,9.44 -17.16,14.17 -28.14,14.17 -11.35,0 -21.05,-5.89 -29.11,-17.67 -8.05,-11.78 -12.08,-25.89 -12.08,-42.33 0,-23.33 7.5,-43.33 22.52,-60 15.01,-16.67 33.04,-25 54.09,-25 20.5,0 35.6,5 45.3,15 10.07,-10 21.51,-15 34.32,-15 18.67,0 33.45,7 44.34,21 10.89,14 16.34,33.11 16.34,57.33zm-87.86 11.67c0,-13.33 -2.74,-23.33 -8.24,-30 -4.58,5.11 -6.86,15.11 -6.86,30 0,6.22 0.64,11.39 1.92,15.5 1.28,4.11 2.93,6.17 4.94,6.17 2.2,0 4.12,-2.11 5.76,-6.33 1.65,-4.22 2.47,-9.33 2.47,-15.33zm-78.25 6.67c0,-4.22 -0.92,-7.78 -2.74,-10.67 -1.83,-2.89 -4.12,-4.33 -6.87,-4.33 -2.93,0 -5.26,1.44 -7,4.33 -1.74,2.89 -2.61,6.44 -2.61,10.67 0,4.22 0.87,7.78 2.61,10.67 1.74,2.89 4.07,4.33 7,4.33 2.75,0 5.03,-1.44 6.87,-4.33 1.83,-2.89 2.74,-6.44 2.74,-10.67z"/>
  <path id="_1_0" class="fil4" d="M1828.62 3429.59l-108.46 0 0 -30c6.41,-4.67 11.44,-10.17 15.1,-16.5 3.66,-6.33 5.49,-13.06 5.49,-20.17 0,-11.33 -3.75,-21.11 -11.26,-29.33 -7.5,-8.22 -16.56,-12.33 -27.18,-12.33 -8.6,0 -16.02,2.22 -22.24,6.67 -6.22,4.44 -9.79,10 -10.71,16.67 1.83,-2.22 5.95,-3.33 12.36,-3.33 10.61,0 19.68,4.67 27.18,14 7.5,9.33 11.26,20.78 11.26,34.33 0,12 -3.75,22.22 -11.26,30.67 -7.5,8.44 -16.57,12.67 -27.18,12.67 -12.45,0 -23.11,-6.28 -31.99,-18.83 -8.88,-12.56 -13.32,-27.94 -13.32,-46.17 0,-22.22 6.41,-41.11 19.22,-56.67 12.81,-15.56 28.37,-23.33 46.68,-23.33 19.04,0 35.24,7.56 48.6,22.67 13.37,15.11 20.05,33.67 20.05,55.67 0,14.89 -1.83,24.89 -5.5,30l32.68 0 0 -106.67 30.48 0 0 140zm-138.93 -40c0,-3.78 -0.73,-6.94 -2.2,-9.5 -1.46,-2.56 -3.39,-3.83 -5.76,-3.83 -2.75,0 -5.04,1.22 -6.87,3.67 -1.83,2.44 -2.74,5.67 -2.74,9.67 0,2.67 0.91,5 2.74,7 1.83,2 4.12,3 6.87,3 2.38,0 4.3,-0.94 5.76,-2.83 1.46,-1.89 2.2,-4.28 2.2,-7.17z"/>
  <path id="_2_1" class="fil4" d="M2005.44 3429.59l-108.46 0 0 -13.33c-1.28,4.89 -3.84,8.89 -7.69,12 -3.85,3.11 -8.06,4.67 -12.63,4.67 -7.69,0 -14.19,-4 -19.49,-12 -5.31,-8 -7.96,-17.89 -7.96,-29.67l0 -101.67 28.83 0 0 101.67c0,5.56 0.92,8.33 2.75,8.33 3.11,0 6.22,-3.78 9.33,-11.33 3.11,-7.56 5.4,-17.11 6.86,-28.67l0 -70 30.48 0 0 106.67 48.05 0 0 -106.67 29.93 0 0 140z"/>
  <path id="_3_2" class="fil4" d="M2117.74 3239.59c0,6.67 -2.01,12.22 -6.04,16.67 -4.03,4.44 -8.88,6.67 -14.56,6.67 -5.67,0 -10.52,-2.22 -14.55,-6.67 -4.03,-4.44 -6.04,-10 -6.04,-16.67 0,-6.67 2.01,-12.22 6.04,-16.67 4.03,-4.44 8.88,-6.67 14.55,-6.67 5.68,0 10.53,2.22 14.56,6.67 4.03,4.44 6.04,10 6.04,16.67zm55.74 160c0,20.44 -4.94,37.78 -14.83,52 -9.89,14.22 -21.87,21.33 -35.97,21.33l-67.27 0c-2.38,0 -4.35,0.94 -5.9,2.83 -1.56,1.89 -2.33,4.28 -2.33,7.17l0 23.33 -30.2 0 0 -23.33c0,-12.89 3.75,-23.89 11.26,-33 7.5,-9.11 16.56,-13.67 27.18,-13.67l67.27 0c5.49,0 10.07,-3.5 13.73,-10.5 3.66,-7 5.49,-15.72 5.49,-26.17 0,-7.33 -1.6,-13.61 -4.81,-18.83 -3.2,-5.22 -7.09,-7.83 -11.67,-7.83l0 6.67c0,14.44 -5.04,26.67 -15.1,36.67 -10.07,10 -22.42,15 -37.07,15 -14.83,0 -27.46,-5.22 -37.89,-15.67 -10.43,-10.44 -15.65,-23 -15.65,-37.67 0,-10.67 2.8,-19.72 8.38,-27.17 5.58,-7.44 12.4,-11.17 20.45,-11.17l0 -50 109.83 0 0 33.33 -32.95 0 0 16.67c13.36,0 24.71,5.89 34.05,17.67 9.33,11.78 14,25.89 14,42.33zm-78.25 -60l0 -16.67 -17.85 0 0 16.67 17.85 0zm0 40l0 -6.67 -37.07 0c-5.5,0 -8.24,2.22 -8.24,6.67 0,4.22 2.24,7.78 6.73,10.67 4.48,2.89 10.02,4.33 16.61,4.33 6.04,0 11.21,-1.5 15.51,-4.5 4.3,-3 6.46,-6.5 6.46,-10.5z"/>
  <path id="_4_3" class="fil4" d="M2375.02 3472.93l-59.04 0c-7.14,12.44 -16.66,22.22 -28.56,29.33 -11.9,7.11 -24.8,10.67 -38.71,10.67 -18.3,0 -33.86,-4.33 -46.68,-13 -12.81,-8.67 -19.22,-19.33 -19.22,-32 0,-7.78 2.56,-14.44 7.69,-20 5.13,-5.56 11.26,-8.33 18.39,-8.33l89.24 0c4.57,-9.78 6.87,-22 6.87,-36.67 0,-7.33 -1.88,-13.61 -5.63,-18.83 -3.75,-5.22 -8.28,-7.83 -13.59,-7.83l0 8.33c0,13.33 -4.44,24.72 -13.31,34.17 -8.88,9.44 -19.54,14.17 -31.99,14.17 -15.56,0 -28.83,-5.22 -39.81,-15.67 -10.98,-10.44 -16.47,-23 -16.47,-37.67 0,-10.67 2.74,-19.78 8.24,-27.33 5.49,-7.56 12.35,-11.78 20.59,-12.67l0 -50 102.96 0 0 33.33 -30.2 0 0 16.67c13.73,0 25.4,6.17 35.01,18.5 9.61,12.33 14.41,27.28 14.41,44.83 0,12.22 -2.29,24.44 -6.86,36.67l16.48 0 0 -150 30.2 0 0 183.33zm-119.44 -133.33l0 -16.67 -12.36 0 0 16.67 12.36 0zm0 45l0 -10 -37.07 0c-2.75,0.44 -4.12,2.11 -4.12,5 0,5.33 2.56,10 7.69,14 5.13,4 11.26,6 18.4,6 4.21,0 7.78,-1.44 10.7,-4.33 2.93,-2.89 4.4,-6.44 4.4,-10.67zm28.83 86.67l-71.39 0c7.51,7.78 19.86,11.67 37.07,11.67 15.38,0 26.82,-3.89 34.32,-11.67z"/>
  <path id="_5_4" class="fil4" d="M2510.11 3239.59c0,6.67 -2.01,12.22 -6.04,16.67 -4.03,4.44 -8.97,6.67 -14.83,6.67 -5.49,0 -10.25,-2.22 -14.28,-6.67 -4.03,-4.44 -6.04,-10 -6.04,-16.67 0,-6.67 2.01,-12.22 6.04,-16.67 4.03,-4.44 8.78,-6.67 14.28,-6.67 5.86,0 10.8,2.22 14.83,6.67 4.03,4.44 6.04,10 6.04,16.67zm79.9 83.33l-27.46 0 0 106.67 -30.2 0 0 -106.67 -9.61 0c-4.21,0 -7.82,2.78 -10.84,8.33 -3.02,5.56 -4.53,12.22 -4.53,20l0 78.33 -29.93 0 0 -81.67c0,-7.33 -2.75,-13.61 -8.24,-18.83 -5.49,-5.22 -11.99,-7.83 -19.49,-7.83 -6.59,0 -12.45,1.78 -17.57,5.33 -5.12,3.56 -7.87,7.89 -8.24,13 2.19,-2.22 5.31,-3.33 9.33,-3.33 11.9,0 21.33,4.44 28.28,13.33 6.96,8.89 10.44,20.56 10.44,35 0,13.33 -3.89,24.72 -11.67,34.17 -7.78,9.44 -17.25,14.17 -28.42,14.17 -12.26,0 -22.15,-5.83 -29.65,-17.5 -7.5,-11.67 -11.26,-26.94 -11.26,-45.83 0,-24.44 5.35,-44.17 16.06,-59.17 10.71,-15 24.94,-22.5 42.7,-22.5 10.61,0 19.54,1.44 26.77,4.33 7.23,2.89 12.13,7 14.69,12.33 2.01,-4.67 5.31,-8.33 9.89,-11 4.58,-2.67 9.98,-4 16.2,-4l72.76 0 0 33.33zm-146.89 61.67c0,-4.22 -1.01,-7.78 -3.02,-10.67 -2.01,-2.89 -4.76,-4.33 -8.24,-4.33 -3.48,0 -6.36,1.44 -8.65,4.33 -2.29,2.89 -3.43,6.44 -3.43,10.67 0,4.22 1.14,7.78 3.43,10.67 2.29,2.89 5.17,4.33 8.65,4.33 3.11,0 5.77,-1.44 7.96,-4.33 2.2,-2.89 3.3,-6.44 3.3,-10.67z"/>
  <path id="_6_5" class="fil4" d="M2865.95 3429.59l-108.46 0 0 -30c6.41,-4.67 11.44,-10.17 15.1,-16.5 3.66,-6.33 5.49,-13.06 5.49,-20.17 0,-11.33 -3.75,-21.11 -11.26,-29.33 -7.5,-8.22 -16.57,-12.33 -27.18,-12.33 -8.61,0 -16.02,2.22 -22.24,6.67 -6.22,4.44 -9.8,10 -10.71,16.67 1.83,-2.22 5.94,-3.33 12.35,-3.33 10.62,0 19.68,4.67 27.18,14 7.5,9.33 11.26,20.78 11.26,34.33 0,12 -3.75,22.22 -11.26,30.67 -7.5,8.44 -16.56,12.67 -27.18,12.67 -12.44,0 -23.11,-6.28 -31.99,-18.83 -8.87,-12.56 -13.31,-27.94 -13.31,-46.17 0,-22.22 6.41,-41.11 19.22,-56.67 12.81,-15.56 28.37,-23.33 46.68,-23.33 19.04,0 35.24,7.56 48.6,22.67 13.36,15.11 20.04,33.67 20.04,55.67 0,14.89 -1.83,24.89 -5.49,30l32.67 0 0 -106.67 30.48 0 0 140zm-138.94 -40c0,-3.78 -0.73,-6.94 -2.19,-9.5 -1.46,-2.56 -3.39,-3.83 -5.77,-3.83 -2.75,0 -5.03,1.22 -6.87,3.67 -1.83,2.44 -2.74,5.67 -2.74,9.67 0,2.67 0.92,5 2.74,7 1.83,2 4.12,3 6.87,3 2.38,0 4.3,-0.94 5.77,-2.83 1.46,-1.89 2.19,-4.28 2.19,-7.17z"/>
  <polygon id="_7_6" class="fil4" points="2991.98,3322.93 2964.52,3322.93 2964.52,3429.59 2934.32,3429.59 2934.32,3322.93 2916.75,3322.93 2916.75,3429.59 2887.92,3429.59 2887.92,3289.59 2991.98,3289.59 "/>
  <path id="_8_7" class="fil4" d="M3099.33 3239.59c0,6.67 -1.97,12.22 -5.9,16.67 -3.94,4.44 -8.74,6.67 -14.41,6.67 -5.68,0 -10.53,-2.22 -14.56,-6.67 -4.02,-4.44 -6.04,-10 -6.04,-16.67 0,-6.67 2.02,-12.22 6.04,-16.67 4.03,-4.44 8.88,-6.67 14.56,-6.67 5.67,0 10.48,2.22 14.41,6.67 3.93,4.44 5.9,10 5.9,16.67zm57.39 138.33c0,14.44 -4.35,26.67 -13.04,36.67 -8.7,10 -19.45,15 -32.26,15l-14.83 0c0,3.56 0.92,6.67 2.74,9.33 1.83,2.67 4.03,4 6.59,4l27.73 0 0 33.33 -22.24 0c-5.67,0 -11.03,1.89 -16.06,5.67 -5.04,3.78 -9.29,9.11 -12.77,16 -2.38,5.56 -6.73,10 -13.04,13.33 -6.32,3.33 -13.41,5 -21.28,5 -11.53,0 -21.23,-4.06 -29.1,-12.17 -7.87,-8.11 -11.81,-17.94 -11.81,-29.5 0,-10.67 3.89,-19.72 11.67,-27.17 7.78,-7.44 17.16,-11.17 28.14,-11.17l10.98 0 0 33.33 -14 0c-3.48,0.44 -5.22,2.11 -5.22,5 0,2.44 0.87,4.44 2.61,6 1.74,1.56 3.98,2.33 6.72,2.33 6.22,0 10.34,-3.33 12.36,-10 2.74,-9.33 8.69,-14.89 17.85,-16.67 -3.84,-1.11 -6.86,-4.06 -9.06,-8.83 -2.19,-4.78 -3.3,-10.72 -3.3,-17.83l-58.76 0 0 -140 29.93 0 0 106.67 28.83 0 0 -63.33c0,-12.67 3.62,-23.33 10.85,-32 7.23,-8.67 16.06,-13 26.49,-13 14.83,0 27.41,8.78 37.76,26.33 10.34,17.56 15.52,38.78 15.52,63.67zm-29.93 0c0,-15.56 -2.34,-28.89 -7,-40 -4.67,-11.11 -10.11,-16.67 -16.34,-16.67 -2.19,0 -3.89,1.11 -5.08,3.33 -1.19,2.22 -1.78,5 -1.78,8.33l0 63.33 14.83 0c4.21,0 7.82,-1.78 10.85,-5.33 3.02,-3.56 4.53,-7.89 4.53,-13z"/>
  <path id="_9" class="fil4" d="M3361 3429.59l-108.46 0 0 -30c6.41,-4.67 11.44,-10.17 15.1,-16.5 3.66,-6.33 5.49,-13.06 5.49,-20.17 0,-11.33 -3.75,-21.11 -11.26,-29.33 -7.5,-8.22 -16.57,-12.33 -27.18,-12.33 -8.61,0 -16.02,2.22 -22.24,6.67 -6.22,4.44 -9.8,10 -10.71,16.67 1.83,-2.22 5.94,-3.33 12.35,-3.33 10.62,0 19.68,4.67 27.18,14 7.5,9.33 11.26,20.78 11.26,34.33 0,12 -3.75,22.22 -11.26,30.67 -7.5,8.44 -16.56,12.67 -27.18,12.67 -12.44,0 -23.11,-6.28 -31.99,-18.83 -8.87,-12.56 -13.31,-27.94 -13.31,-46.17 0,-22.22 6.41,-41.11 19.22,-56.67 12.81,-15.56 28.37,-23.33 46.68,-23.33 19.04,0 35.24,7.56 48.6,22.67 13.36,15.11 20.04,33.67 20.04,55.67 0,14.89 -1.83,24.89 -5.49,30l32.67 0 0 -106.67 30.48 0 0 140zm-138.93 -40c0,-3.78 -0.73,-6.94 -2.19,-9.5 -1.46,-2.56 -3.39,-3.83 -5.77,-3.83 -2.75,0 -5.03,1.22 -6.87,3.67 -1.83,2.44 -2.74,5.67 -2.74,9.67 0,2.67 0.92,5 2.74,7 1.83,2 4.12,3 6.87,3 2.38,0 4.3,-0.94 5.77,-2.83 1.46,-1.89 2.19,-4.28 2.19,-7.17z"/>
  <polygon id="_10" class="fil4" points="3487.03,3322.93 3459.57,3322.93 3459.57,3429.59 3429.37,3429.59 3429.37,3322.93 3411.8,3322.93 3411.8,3429.59 3382.97,3429.59 3382.97,3289.59 3487.03,3289.59 "/>
  <path id="_11" class="fil4" d="M3607.29 3239.59c0,6.67 -2.01,12.22 -6.04,16.67 -4.03,4.44 -8.79,6.67 -14.28,6.67 -5.85,0 -10.8,-2.22 -14.83,-6.67 -4.03,-4.44 -6.04,-10 -6.04,-16.67 0,-6.67 2.01,-12.22 6.04,-16.67 4.03,-4.44 8.97,-6.67 14.83,-6.67 5.49,0 10.25,2.22 14.28,6.67 4.03,4.44 6.04,10 6.04,16.67zm63.98 190l-124.93 0 0 -33.33 41.19 0c3.48,0 6.41,-1.89 8.79,-5.67 2.38,-3.78 3.57,-8.56 3.57,-14.33 0,-4.22 -1.19,-7.78 -3.57,-10.67 -2.38,-2.89 -5.31,-4.33 -8.79,-4.33 -3.48,0 -6.4,2.11 -8.78,6.33 -2.38,4.22 -3.57,9.33 -3.57,15.33l-28.83 0 0 -60 -15.1 0 0 106.67 -28.83 0 0 -140 104.06 0 0 33.33 -29.93 0 0 10c2.38,-2.22 6.41,-3.33 12.08,-3.33 11.53,0 21.28,4.56 29.24,13.67 7.96,9.11 11.94,20.11 11.94,33 0,8.22 -1.83,14.89 -5.49,20l16.48 0 0 -106.67 30.48 0 0 140z"/>
  <path id="_12" class="fil4" d="M3891.75 3399.59c0,16.89 -2.38,32.39 -7.14,46.5 -4.76,14.11 -11.35,26.06 -19.77,35.83 -18.67,20.67 -42.74,31 -72.22,31 -15.56,0 -29.93,-3 -43.11,-9 -13.18,-6 -24.35,-14.67 -33.5,-26 -19.22,-23.33 -28.83,-54.44 -28.83,-93.33 0,-18.67 3.75,-36 11.26,-52 7.51,-16 17.85,-28.67 31.03,-38l15.38 26.67c-8.97,7.56 -16.02,17 -21.14,28.33 -5.13,11.33 -7.69,23 -7.69,35 0,28.67 6.91,51.67 20.73,69 13.82,17.33 32.44,26 55.87,26 10.25,0 19.63,-1.89 28.15,-5.67 8.51,-3.78 15.79,-9.22 21.83,-16.33 12.44,-14.67 18.67,-34 18.67,-58 0,-7.33 -2.06,-13.61 -6.18,-18.83 -4.12,-5.22 -8.83,-7.83 -14.14,-7.83l-6.87 0 0 11.67c0,13.33 -4.21,24.72 -12.63,34.17 -8.42,9.44 -18.49,14.17 -30.2,14.17 -15.74,0 -29.24,-5.5 -40.5,-16.5 -11.26,-11 -16.89,-24.39 -16.89,-40.17 0,-10.22 2.38,-18.89 7.14,-26 4.76,-7.11 10.52,-10.67 17.3,-10.67l0 -50 105.98 0 0 33.33 -30.2 0 0 16.67 8.24 0c13.54,0 25.17,5.89 34.87,17.67 9.7,11.78 14.55,25.89 14.55,42.33zm-88.14 -60l0 -16.67 -14.83 0 0 16.67 14.83 0zm0 45l0 -11.67 -34.32 0c-2.56,-0.44 -3.84,0.67 -3.84,3.33 0,6.44 2.47,11.94 7.41,16.5 4.94,4.56 11.07,6.83 18.4,6.83 3.66,0 6.63,-1.44 8.92,-4.33 2.29,-2.89 3.43,-6.44 3.43,-10.67z"/>
  <path id="_13" class="fil4" d="M4168.52 3429.59l-108.46 0 0 -30c6.41,-4.67 11.44,-10.17 15.1,-16.5 3.66,-6.33 5.49,-13.06 5.49,-20.17 0,-11.33 -3.75,-21.11 -11.26,-29.33 -7.5,-8.22 -16.57,-12.33 -27.19,-12.33 -8.6,0 -16.02,2.22 -22.24,6.67 -6.22,4.44 -9.79,10 -10.71,16.67 1.83,-2.22 5.95,-3.33 12.36,-3.33 10.62,0 19.68,4.67 27.18,14 7.5,9.33 11.26,20.78 11.26,34.33 0,12 -3.75,22.22 -11.26,30.67 -7.5,8.44 -16.56,12.67 -27.18,12.67 -12.45,0 -23.11,-6.28 -31.99,-18.83 -8.88,-12.56 -13.31,-27.94 -13.31,-46.17 0,-22.22 6.41,-41.11 19.22,-56.67 12.81,-15.56 28.37,-23.33 46.67,-23.33 19.04,0 35.24,7.56 48.6,22.67 13.37,15.11 20.05,33.67 20.05,55.67 0,14.89 -1.83,24.89 -5.5,30l32.68 0 0 -106.67 30.48 0 0 140zm-138.93 -40c0,-3.78 -0.73,-6.94 -2.2,-9.5 -1.46,-2.56 -3.39,-3.83 -5.76,-3.83 -2.75,0 -5.04,1.22 -6.87,3.67 -1.83,2.44 -2.74,5.67 -2.74,9.67 0,2.67 0.91,5 2.74,7 1.83,2 4.12,3 6.87,3 2.38,0 4.3,-0.94 5.76,-2.83 1.47,-1.89 2.2,-4.28 2.2,-7.17z"/>
  <polygon id="_14" class="fil4" points="4294.54,3322.93 4267.09,3322.93 4267.09,3429.59 4236.89,3429.59 4236.89,3322.93 4219.31,3322.93 4219.31,3429.59 4190.48,3429.59 4190.48,3289.59 4294.54,3289.59 "/>
  <path id="_15" class="fil4" d="M4528.2 3381.26c0,13.33 -3.85,24.72 -11.53,34.17 -7.69,9.44 -17.12,14.17 -28.28,14.17l-24.43 0 0 11.67c2.19,-3.33 5.85,-5 10.98,-5 8.42,0 15.56,3.67 21.41,11 5.86,7.33 8.79,16.44 8.79,27.33 0,14.44 -7.87,26.67 -23.62,36.67 -15.74,10 -34.87,15 -57.38,15 -17.57,0 -33.86,-3.22 -48.87,-9.67 -15.01,-6.44 -27.69,-15.5 -38.03,-27.17 -10.34,-11.67 -18.35,-26 -24.03,-43 -5.67,-17 -8.51,-35.39 -8.51,-55.17 0,-21.33 3.39,-40.78 10.16,-58.33 6.77,-17.56 16.2,-31.44 28.28,-41.67l17.85 25c-8.24,6.89 -14.69,16.94 -19.36,30.17 -4.67,13.22 -7,28.17 -7,44.83 0,14.89 2.11,28.83 6.32,41.83 4.21,13 10.34,24.06 18.39,33.17 15.93,18.89 37.53,28.33 64.8,28.33 15.01,0 27.64,-1.89 37.89,-5.67 10.25,-3.78 15.37,-8.56 15.37,-14.33 0,-3.33 -0.59,-6.11 -1.78,-8.33 -1.19,-2.22 -2.79,-3.33 -4.81,-3.33 -2.01,0 -3.66,0.89 -4.94,2.67 -1.28,1.78 -1.92,4.22 -1.92,7.33l-30.2 0 0 -43.33 -63.15 0 0 -140 30.2 0 0 106.67 32.95 0 0 -66.67c0,-11.56 3.57,-21.39 10.7,-29.5 7.14,-8.11 15.93,-12.17 26.36,-12.17 15.56,0 29.02,9.17 40.36,27.5 11.35,18.33 17.03,40.28 17.03,65.83zm-29.93 0c0,-16.67 -2.66,-30.83 -7.96,-42.5 -5.31,-11.67 -11.81,-17.5 -19.5,-17.5 -2.01,0 -3.66,0.78 -4.94,2.33 -1.28,1.56 -1.92,3.56 -1.92,6l0 66.67 24.43 0c2.93,0 5.31,-1.44 7.14,-4.33 1.83,-2.89 2.75,-6.44 2.75,-10.67z"/>
  <path id="_16" class="fil4" d="M4636.38 3239.59c0,6.67 -2.01,12.22 -6.04,16.67 -4.03,4.44 -8.79,6.67 -14.28,6.67 -5.85,0 -10.75,-2.22 -14.69,-6.67 -3.93,-4.44 -5.9,-10 -5.9,-16.67 0,-6.67 1.97,-12.22 5.9,-16.67 3.94,-4.44 8.83,-6.67 14.69,-6.67 5.49,0 10.25,2.22 14.28,6.67 4.03,4.44 6.04,10 6.04,16.67zm58.21 145c0,12.44 -3.66,23.06 -10.98,31.83 -7.32,8.78 -16.39,13.17 -27.19,13.17l-112.57 0 0 -140 28.83 0 0 106.67 27.45 0 0 -66.67c0,-11.33 3.44,-21.11 10.3,-29.33 6.86,-8.22 15.33,-12.33 25.4,-12.33 16.11,0 29.93,9.44 41.46,28.33 11.53,18.89 17.3,41.67 17.3,68.33zm-30.2 -3.33c0,-16.67 -2.79,-30.83 -8.37,-42.5 -5.58,-11.67 -12.31,-17.5 -20.18,-17.5 -3.84,0 -5.77,2.78 -5.77,8.33l0 66.67 19.22 0c4.39,0 8.01,-1.44 10.85,-4.33 2.84,-2.89 4.26,-6.44 4.26,-10.67z"/>
  <path id="_17" class="fil4" d="M4972.19 3429.59l-108.46 0 0 -30c6.41,-4.67 11.44,-10.17 15.1,-16.5 3.66,-6.33 5.49,-13.06 5.49,-20.17 0,-11.33 -3.76,-21.11 -11.26,-29.33 -7.5,-8.22 -16.56,-12.33 -27.18,-12.33 -8.6,0 -16.02,2.22 -22.24,6.67 -6.22,4.44 -9.79,10 -10.71,16.67 1.83,-2.22 5.95,-3.33 12.36,-3.33 10.61,0 19.68,4.67 27.18,14 7.5,9.33 11.26,20.78 11.26,34.33 0,12 -3.75,22.22 -11.26,30.67 -7.5,8.44 -16.57,12.67 -27.18,12.67 -12.45,0 -23.11,-6.28 -31.99,-18.83 -8.88,-12.56 -13.32,-27.94 -13.32,-46.17 0,-22.22 6.41,-41.11 19.22,-56.67 12.81,-15.56 28.37,-23.33 46.68,-23.33 19.04,0 35.24,7.56 48.6,22.67 13.37,15.11 20.05,33.67 20.05,55.67 0,14.89 -1.83,24.89 -5.5,30l32.68 0 0 -106.67 30.48 0 0 140zm-138.93 -40c0,-3.78 -0.73,-6.94 -2.2,-9.5 -1.46,-2.56 -3.39,-3.83 -5.76,-3.83 -2.75,0 -5.04,1.22 -6.87,3.67 -1.83,2.44 -2.74,5.67 -2.74,9.67 0,2.67 0.91,5 2.74,7 1.83,2 4.12,3 6.87,3 2.38,0 4.3,-0.94 5.76,-2.83 1.46,-1.89 2.2,-4.28 2.2,-7.17z"/>
  <path id="_18" class="fil4" d="M5329.4 3429.59l-30.48 0 0 -171.67c0,-5.56 -1.56,-10.28 -4.67,-14.17 -3.11,-3.89 -6.95,-5.83 -11.53,-5.83 -4.39,0 -8.01,2.44 -10.85,7.33 -2.84,4.89 -4.26,10.78 -4.26,17.67 0,9.78 2.65,18.67 7.96,26.67l14 0 0 33.33 -12.35 0 0 106.67 -30.48 0 0 -106.67 -12.08 0c-9.88,0 -15.83,1.11 -17.84,3.33 10.06,14.22 15.1,31.44 15.1,51.67 0,15.33 -3.57,28.33 -10.71,39 -7.14,10.67 -15.92,16 -26.36,16 -10.8,0 -19.91,-5.33 -27.32,-16 -7.41,-10.67 -11.12,-23.67 -11.12,-39 0,-9.78 1.19,-18.94 3.57,-27.5 2.38,-8.56 5.77,-16.06 10.16,-22.5 -4.57,-4.44 -9.7,-6.67 -15.37,-6.67 -6.59,0 -12.08,2.22 -16.47,6.67 9.33,9.78 14,26.44 14,50 0,15.11 -3.75,28.06 -11.26,38.83 -7.51,10.78 -16.57,16.17 -27.19,16.17 -10.61,0 -19.45,-5.28 -26.5,-15.83 -7.04,-10.56 -10.57,-23.61 -10.57,-39.17 0,-21.33 4.12,-38 12.35,-50 -4.21,-4.44 -12.54,-6.67 -24.98,-6.67 -13.18,0 -23.62,3.33 -31.3,10 11.35,0 21.05,5.22 29.1,15.67 8.06,10.44 12.08,23 12.08,37.67 0,14.44 -4.03,26.67 -12.08,36.67 -8.05,10 -17.76,15 -29.1,15 -14.09,0 -25.17,-5.94 -33.22,-17.83 -8.06,-11.89 -12.08,-27.61 -12.08,-47.17 0,-24.89 6.86,-45 20.59,-60.33 13.72,-15.33 32.39,-23 56.01,-23 22.51,0 39.08,4.44 49.69,13.33 8.6,-8.89 22.24,-13.33 40.91,-13.33 17.94,0 31.3,4.44 40.09,13.33 6.78,-7.78 20.04,-11.67 39.81,-11.67l9.61 0c-4.57,-6.89 -6.86,-15.78 -6.86,-26.67 0,-16.22 4.35,-30 13.04,-41.33 8.7,-11.33 19.45,-17 32.26,-17 12.81,0 23.8,5.22 32.95,15.67 9.15,10.44 13.73,23 13.73,37.67l0 171.67zm-127.95 -51.67c0,-18.89 -2.2,-30.56 -6.59,-35 -2.56,2.44 -4.57,6.78 -6.04,13 -1.46,6.22 -2.2,13.56 -2.2,22 0,6.22 0.78,11.39 2.33,15.5 1.56,4.11 3.52,6.17 5.9,6.17 2.01,0 3.61,-2.06 4.81,-6.17 1.19,-4.11 1.78,-9.28 1.78,-15.5zm-79.35 0c0,-18.89 -2.38,-30.56 -7.14,-35 -2.38,2.44 -4.3,6.78 -5.76,13 -1.46,6.22 -2.2,13.56 -2.2,22 0,6.22 0.78,11.39 2.33,15.5 1.56,4.11 3.44,6.17 5.63,6.17 2.2,0 3.94,-2.06 5.22,-6.17 1.28,-4.11 1.92,-9.28 1.92,-15.5zm-78.26 6.67c0,-5.33 -1,-9.72 -3.02,-13.17 -2.01,-3.44 -4.67,-5.17 -7.96,-5.17 -2.93,0 -5.49,1.78 -7.69,5.33 -2.19,3.56 -3.3,7.89 -3.3,13 0,4.22 1.01,7.78 3.02,10.67 2.02,2.89 4.67,4.33 7.96,4.33 2.93,0 5.49,-1.44 7.69,-4.33 2.2,-2.89 3.3,-6.44 3.3,-10.67z"/>
  <path id="_19" class="fil4" d="M5490.57 3384.59c0,13.11 -3.75,24.44 -11.26,34 -7.5,9.56 -16.66,14.33 -27.46,14.33 -2.38,-0.44 -4.57,-1.56 -6.59,-3.33l0 -31.67c1.28,1.11 3.48,1.67 6.59,1.67 2.38,0 4.39,-1.44 6.04,-4.33 1.65,-2.89 2.47,-6.44 2.47,-10.67 0,-3.33 -1.01,-6.11 -3.02,-8.33 -2.01,-2.22 -4.67,-3.33 -7.96,-3.33l-4.12 0 0 5c0,15.11 -4.81,28.06 -14.41,38.83 -9.61,10.78 -21.28,16.17 -35.01,16.17 -13.55,0 -25.17,-5.33 -34.87,-16 -9.7,-10.67 -14.55,-23.67 -14.55,-39 0,-9.56 2.24,-17.94 6.72,-25.17 4.48,-7.22 10.02,-11.61 16.61,-13.17l0 -50 102.96 0 0 33.33 -27.46 0 0 16.67 4.12 0c11.35,0 21.05,4.33 29.11,13 8.05,8.67 12.08,19.33 12.08,32zm-75.5 -45l0 -16.67 -15.1 0 0 16.67 15.1 0zm0 38.33l0 -5 -34.32 0c-3.66,0 -5.49,2.22 -5.49,6.67 0,5.33 2.02,10 6.04,14 4.02,4 8.87,6 14.55,6 5.31,0 9.84,-2.06 13.59,-6.17 3.75,-4.11 5.63,-9.28 5.63,-15.5z"/>
  <path id="_20" class="fil4" d="M5597.38 3239.59c0,6.67 -2.01,12.22 -6.04,16.67 -4.03,4.44 -8.79,6.67 -14.28,6.67 -5.86,0 -10.76,-2.22 -14.69,-6.67 -3.93,-4.44 -5.9,-10 -5.9,-16.67 0,-6.67 1.97,-12.22 5.9,-16.67 3.94,-4.44 8.83,-6.67 14.69,-6.67 5.49,0 10.25,2.22 14.28,6.67 4.03,4.44 6.04,10 6.04,16.67zm58.21 145c0,12.44 -3.66,23.06 -10.98,31.83 -7.32,8.78 -16.39,13.17 -27.19,13.17l-112.57 0 0 -140 28.83 0 0 106.67 27.45 0 0 -66.67c0,-11.33 3.44,-21.11 10.3,-29.33 6.86,-8.22 15.33,-12.33 25.4,-12.33 16.11,0 29.93,9.44 41.46,28.33 11.53,18.89 17.3,41.67 17.3,68.33zm-30.2 -3.33c0,-16.67 -2.79,-30.83 -8.37,-42.5 -5.58,-11.67 -12.31,-17.5 -20.18,-17.5 -3.84,0 -5.77,2.78 -5.77,8.33l0 66.67 19.22 0c4.39,0 8.01,-1.44 10.85,-4.33 2.84,-2.89 4.26,-6.44 4.26,-10.67z"/>
  <polygon id="_21" class="fil2" points="5831.59,3376.26 5747.85,3376.26 5747.85,3341.26 5831.59,3341.26 "/>
  <path id="_22" class="fil2" d="M5936.75 3429.59c2.02,-28 3.75,-62.22 5.22,-102.72 1.46,-40.44 2.38,-80.28 2.74,-119.61 6.18,0.11 10.89,0.17 14.1,0.17l12.54 -0.17 -4.25 103.28 -3.16 97.39 25.44 0.17c18.94,0 32.26,-0.11 40,-0.28 7.73,-0.11 15.19,-0.5 22.42,-1.06 -0.55,6.89 -1,14.44 -1.33,22.83 -20.31,-0.22 -38.21,-0.33 -53.77,-0.33l-59.95 0.33z"/>
  <path id="_23" class="fil2" d="M6181.16 3403.93c-1.09,5.94 -2.19,13.5 -3.3,22.67 -8.6,2.61 -16.01,4.39 -22.33,5.28 -6.31,0.94 -12.58,1.39 -18.85,1.39 -11.17,0 -21.23,-1.61 -30.11,-4.89 -8.92,-3.28 -16.52,-8.94 -22.88,-17 -6.36,-8.11 -10.94,-17.39 -13.69,-27.78 -2.79,-10.44 -4.17,-21.44 -4.17,-33.06 0,-16.22 2.57,-31.22 7.65,-45.06 5.08,-13.83 12.77,-24.72 23.02,-32.67 10.21,-7.94 23.2,-11.89 38.94,-11.89 8.15,0 15.93,1.44 23.34,4.33 7.41,2.89 13.59,7.28 18.49,13.11 4.94,5.89 8.74,13.17 11.39,21.83 2.7,8.61 4.03,18.06 4.03,28.28 0,3.94 -0.28,7.72 -0.82,11.44l-102.14 0c-0.37,5.94 -0.55,10.5 -0.55,13.67 0,11.39 1.97,21.89 5.9,31.44 3.94,9.61 9.75,16.89 17.44,21.83 7.69,4.94 16.52,7.39 26.54,7.39 11.53,0 25.58,-3.44 42.1,-10.33zm-90.33 -77.67l79.62 0c-0.09,-6.83 -0.46,-12.11 -1.05,-15.89 -0.65,-3.78 -1.78,-7.72 -3.48,-11.72 -1.69,-4.06 -3.98,-7.61 -6.91,-10.56 -2.88,-3 -6.36,-5.22 -10.39,-6.83 -4.07,-1.56 -8.46,-2.33 -13.18,-2.33 -5.08,0 -9.89,0.89 -14.51,2.61 -4.57,1.72 -8.6,4.11 -12.13,7.11 -3.52,3.06 -6.5,6.56 -8.97,10.61 -2.43,4.06 -4.26,8 -5.49,11.78 -1.19,3.78 -2.38,8.83 -3.52,15.22z"/>
  <path id="_24" class="fil2" d="M6283.81 3408.26c-1.01,5.28 -2.1,12.28 -3.3,21 -6.04,1.78 -10.85,2.89 -14.41,3.33 -3.57,0.44 -6.96,0.67 -10.16,0.67 -7.91,0 -14.32,-1.22 -19.17,-3.67 -4.85,-2.44 -8.56,-6.33 -11.12,-11.72 -2.61,-5.39 -3.89,-12.67 -3.89,-21.89 0,-1.22 0.04,-3.33 0.13,-6.33 0.09,-3.06 0.55,-13.67 1.38,-31.78l3.34 -72.94 -18.03 0c0.37,-4.61 0.69,-11.17 0.96,-19.67l18.31 0c0.46,-6.06 0.91,-16.39 1.37,-31 8.42,-2 15.56,-3.89 21.37,-5.67 -0.64,16.06 -1,28.28 -1.1,36.67l37.07 0c-0.46,6.89 -0.73,13.44 -0.82,19.67l-36.97 0 -3.76 91.67 -0.14 7c0,7.94 0.74,13.89 2.2,17.83 1.51,4 3.7,6.83 6.63,8.56 2.93,1.72 6.04,2.61 9.24,2.61 2.24,0 4.62,-0.22 7.23,-0.67 2.56,-0.39 7.14,-1.61 13.63,-3.67z"/>
  <path id="_25" class="fil2" d="M6411.02 3429.59c2.29,-32.11 4.03,-64.56 5.26,-97.33l-58.99 -125 14.32 0.17c2.84,0 7.37,-0.06 13.5,-0.17 4.25,10.89 10.8,25.83 19.68,44.89 8.87,19.11 17.3,37.83 25.17,56.17l46.95 -88.67 6.04 -12.39c5.86,0.11 10.57,0.17 14.14,0.17l13.31 -0.17 -53.54 96.17 -16.75 30.83 -2.42 74.17 -0.28 21.17c-6.36,-0.22 -10.75,-0.33 -13.18,-0.33 -2.43,0 -6.87,0.11 -13.23,0.33z"/>
  <path id="_26" class="fil2" d="M6586.06 3260.92c9.38,0 18.35,1.61 26.81,4.89 8.52,3.28 15.88,8.39 22.06,15.44 6.22,7.11 10.94,16 14.14,26.72 3.25,10.78 4.85,22.11 4.85,34.06 0,12.94 -1.74,25.33 -5.17,37.17 -3.44,11.83 -8.28,21.83 -14.46,30.11 -6.22,8.28 -13.82,14.33 -22.83,18.17 -8.97,3.83 -18.58,5.78 -28.87,5.78 -9.56,0 -18.63,-1.72 -27.09,-5.22 -8.51,-3.44 -15.88,-8.89 -22.06,-16.28 -6.22,-7.39 -10.94,-16.44 -14.14,-27.11 -3.25,-10.72 -4.85,-21.94 -4.85,-33.67 0,-17.67 2.93,-33.61 8.83,-47.78 5.9,-14.17 14.6,-24.78 26.04,-31.78 11.44,-7 23.7,-10.5 36.74,-10.5zm-0.59 20.67c-9.15,0 -17.53,2.78 -25.17,8.28 -7.69,5.56 -13.32,13.89 -17.03,25 -3.66,11.11 -5.49,23.22 -5.49,36.39 0,11.5 1.51,21.83 4.57,31 3.02,9.17 8.06,16.56 15.01,22.22 7,5.61 15.42,8.44 25.26,8.44 6.72,0 13.09,-1.39 19.08,-4.17 6,-2.78 11.26,-7.33 15.7,-13.72 4.48,-6.39 7.83,-14.28 9.98,-23.56 2.15,-9.28 3.2,-19 3.2,-29.17 0,-9.56 -1.05,-18.5 -3.2,-26.89 -2.15,-8.33 -5.45,-15.06 -9.89,-20.11 -4.44,-5 -9.47,-8.56 -15.06,-10.61 -5.58,-2.06 -11.26,-3.11 -16.98,-3.11z"/>
  <path id="_27" class="fil2" d="M6807.37 3429.59c-4.34,-0.22 -8.05,-0.33 -11.17,-0.33 -3.57,0 -7.23,0.11 -11.07,0.33l0.69 -31.44c-2.11,4.89 -3.98,8.67 -5.54,11.33 -1.55,2.67 -3.52,5.28 -5.85,7.83 -2.33,2.56 -4.71,4.72 -7.19,6.5 -2.43,1.72 -5.31,3.28 -8.65,4.61 -3.3,1.39 -7.14,2.5 -11.57,3.44 -4.44,0.94 -9.16,1.39 -14.15,1.39 -10.93,0 -20.27,-2 -28,-6.06 -7.74,-4 -13.59,-9.72 -17.57,-17.11 -3.98,-7.39 -5.94,-17.5 -5.94,-30.33 0,-1.94 0.09,-5.28 0.28,-9.94 0.18,-4.67 0.41,-10.78 0.78,-18.22l2.24 -54.28 0.37 -17.39c0.09,-4.06 0.13,-9.17 0.13,-15.33l12.35 0.17c2.52,0 6.37,-0.06 11.58,-0.17 -1.24,19 -2.38,39.78 -3.52,62.39 -1.1,22.56 -1.65,37 -1.65,43.33 0,9.61 1.28,17.28 3.84,23 2.56,5.72 6.82,10.17 12.77,13.28 5.95,3.11 12.68,4.67 20.18,4.67 6.63,0 13,-1.39 19.09,-4.22 5.17,-2.56 9.56,-5.89 13.13,-10.17 3.89,-4.67 7.09,-10.72 9.7,-18.11 1.88,-5.44 3.3,-12.44 4.3,-21.06 0.6,-6.22 1.24,-17.39 1.88,-33.5 0.74,-19.56 1.24,-39.39 1.51,-59.61l12.45 0.17c2.65,0 6.41,-0.06 11.21,-0.17 -1.28,19.56 -2.84,49.22 -4.62,89.11 -1,21.94 -1.65,47.22 -1.97,75.89z"/>
  <path id="_28" class="fil2" d="M6843.24 3429.59c3.2,-62.67 4.81,-112.67 4.81,-150l-0.14 -15c4.58,0.11 8.38,0.17 11.35,0.17 3.39,0 7.23,-0.06 11.44,-0.17l-1.01 27.06c3.3,-6.72 6.22,-11.78 8.79,-15.22 2.52,-3.39 5.4,-6.22 8.6,-8.44 3.2,-2.22 6.86,-3.94 10.93,-5.17 4.03,-1.28 8.28,-1.89 12.63,-1.89 3.75,0 7.46,0.56 11.12,1.67 0.09,7.06 0.37,14.94 0.82,23.67 -5.49,-1.78 -10.43,-2.67 -14.78,-2.67 -5.26,0 -9.98,1.06 -14.14,3.17 -4.21,2.17 -7.96,5.33 -11.26,9.67 -3.34,4.28 -6.09,9.44 -8.24,15.39 -1.78,4.83 -3.11,11 -4.07,18.67 -0.91,7.61 -1.65,21.44 -2.2,41.61 -0.32,14.67 -0.5,30.17 -0.5,46.61l0 10.89c-4.9,-0.22 -8.83,-0.33 -11.81,-0.33 -2.7,0 -6.82,0.11 -12.35,0.33z"/>
  <path id="_29" class="fil2" d="M7011.19 3429.59c1.51,-22.17 2.56,-40.11 3.11,-53.89 0.59,-13.83 1.37,-40.33 2.42,-79.61 1.01,-39.22 1.51,-63.78 1.51,-73.5l-0.13 -15.33c12.08,0.22 21.41,0.33 27.96,0.33 5.26,0 12.35,-0.11 21.28,-0.33 8.88,-0.22 15.74,-0.33 20.46,-0.33 9.84,0 17.34,0.61 22.52,1.78 5.12,1.22 9.7,3.11 13.77,5.72 4.03,2.61 7.41,5.89 10.2,9.83 2.75,3.94 4.99,8.89 6.68,14.72 1.69,5.89 2.57,12.33 2.57,19.39 0,5.5 -0.55,10.89 -1.7,16 -1.1,5.17 -2.83,10 -5.17,14.5 -2.29,4.5 -4.99,8.39 -8.06,11.67 -3.02,3.22 -5.95,5.78 -8.7,7.56 -2.79,1.78 -6.45,3.72 -11.03,5.78 4.57,1.39 8.19,2.78 10.94,4.06 2.7,1.33 5.44,3.06 8.15,5.22 2.74,2.17 5.26,4.89 7.64,8.06 2.38,3.22 4.3,6.67 5.77,10.28 1.46,3.67 2.61,7.78 3.43,12.33 0.78,4.56 1.19,9.33 1.19,14.33 0,6.94 -0.87,13.56 -2.56,19.89 -1.69,6.28 -4.17,11.94 -7.37,16.89 -3.2,4.94 -7,9.06 -11.39,12.39 -4.39,3.28 -8.74,5.78 -13,7.44 -4.3,1.72 -9.97,2.94 -16.98,3.67 -7.05,0.78 -16.38,1.17 -28.09,1.17l-34.23 -0.17 -21.19 0.17zm28.88 -125l24.34 0c10.94,0 18.35,-0.28 22.29,-0.89 3.94,-0.61 8.24,-2 12.86,-4.22 4.62,-2.22 8.42,-5.5 11.44,-9.78 2.98,-4.28 5.17,-8.94 6.54,-14 1.42,-5.06 2.1,-10.11 2.1,-15.22 0,-5.44 -0.73,-10.22 -2.19,-14.33 -1.51,-4.11 -3.71,-7.67 -6.68,-10.61 -2.93,-2.89 -6.41,-5 -10.39,-6.33 -4.03,-1.28 -10.07,-1.94 -18.22,-1.94l-39.67 0 -2.43 77.33zm-3.2 104.33l34.82 0c9.84,0 17.12,-0.67 21.87,-1.94 4.72,-1.33 9.38,-3.61 13.96,-6.94 4.53,-3.28 8.1,-8.22 10.7,-14.78 2.61,-6.61 3.89,-13.56 3.89,-20.94 0,-6.06 -0.91,-11.56 -2.74,-16.44 -1.83,-4.89 -4.53,-9.11 -8.06,-12.67 -3.52,-3.61 -7.64,-6.22 -12.4,-7.83 -4.71,-1.61 -11.67,-2.44 -20.77,-2.44l-38.85 0 -2.43 84z"/>
  <path id="_30" class="fil2" d="M7300.86 3429.59c-4.35,-0.22 -8.05,-0.33 -11.17,-0.33 -3.57,0 -7.23,0.11 -11.07,0.33l0.69 -31.44c-2.11,4.89 -3.98,8.67 -5.54,11.33 -1.56,2.67 -3.52,5.28 -5.86,7.83 -2.33,2.56 -4.71,4.72 -7.18,6.5 -2.43,1.72 -5.31,3.28 -8.65,4.61 -3.3,1.39 -7.14,2.5 -11.58,3.44 -4.44,0.94 -9.15,1.39 -14.14,1.39 -10.94,0 -20.27,-2 -28.01,-6.06 -7.73,-4 -13.59,-9.72 -17.57,-17.11 -3.98,-7.39 -5.95,-17.5 -5.95,-30.33 0,-1.94 0.09,-5.28 0.28,-9.94 0.18,-4.67 0.41,-10.78 0.78,-18.22l2.24 -54.28 0.37 -17.39c0.09,-4.06 0.14,-9.17 0.14,-15.33l12.35 0.17c2.52,0 6.36,-0.06 11.58,-0.17 -1.24,19 -2.38,39.78 -3.52,62.39 -1.1,22.56 -1.65,37 -1.65,43.33 0,9.61 1.28,17.28 3.84,23 2.56,5.72 6.82,10.17 12.77,13.28 5.95,3.11 12.68,4.67 20.18,4.67 6.63,0 13,-1.39 19.08,-4.22 5.17,-2.56 9.56,-5.89 13.13,-10.17 3.89,-4.67 7.1,-10.72 9.7,-18.11 1.88,-5.44 3.3,-12.44 4.3,-21.06 0.6,-6.22 1.24,-17.39 1.88,-33.5 0.73,-19.56 1.24,-39.39 1.51,-59.61l12.44 0.17c2.65,0 6.41,-0.06 11.21,-0.17 -1.28,19.56 -2.84,49.22 -4.62,89.11 -1,21.94 -1.65,47.22 -1.97,75.89z"/>
  <path id="_31" class="fil2" d="M7330.7 3426.59l-0.82 -12.11c0,-1.28 -0.37,-5.5 -1.1,-12.56 13.82,7.33 26.59,11 38.26,11 6.13,0 11.3,-0.94 15.51,-2.89 4.21,-1.94 7.41,-4.83 9.52,-8.67 2.11,-3.83 3.16,-7.83 3.16,-11.89 0,-2.28 -0.28,-4.56 -0.87,-6.83 -0.59,-2.28 -1.47,-4.44 -2.65,-6.56 -1.15,-2.11 -2.88,-4.39 -5.17,-6.94 -2.29,-2.56 -7.09,-7.33 -14.32,-14.39 -7.23,-7.06 -12.72,-12.56 -16.48,-16.56 -3.7,-3.94 -6.91,-8 -9.56,-12.22 -2.65,-4.17 -4.62,-8.39 -5.9,-12.61 -1.24,-4.22 -1.88,-8.5 -1.88,-12.89 0,-6.94 1.83,-13.67 5.44,-20.17 3.62,-6.5 8.88,-11.39 15.74,-14.61 6.87,-3.17 14.92,-4.78 24.12,-4.78 10.34,0 21.69,1.44 34.05,4.33 0.37,8.5 0.83,16.28 1.37,23.33 -10.07,-4.89 -20,-7.33 -29.79,-7.33 -5.26,0 -10.2,0.83 -14.74,2.5 -4.53,1.72 -7.87,4.22 -9.97,7.56 -2.11,3.39 -3.16,7.06 -3.16,11.06 0,2.61 0.37,5.11 1.1,7.5 0.68,2.33 1.96,4.94 3.84,7.67 1.83,2.78 4.07,5.5 6.68,8.22 2.61,2.72 7.78,7.83 15.56,15.33 7.82,7.44 13.13,13 16.02,16.61 2.88,3.56 5.35,7.28 7.41,11.06 2.06,3.78 3.57,7.56 4.53,11.33 0.96,3.72 1.42,7.56 1.42,11.44 0,7.61 -1.88,14.67 -5.58,21.22 -3.71,6.5 -9.24,11.56 -16.61,15.11 -7.37,3.61 -15.61,5.39 -24.76,5.39 -3.84,0 -8.37,-0.28 -13.59,-0.89 -5.22,-0.61 -9.61,-1.28 -13.22,-2.11 -3.66,-0.83 -8.15,-2.06 -13.55,-3.67z"/>
  <path id="_32" class="fil2" d="M7453.02 3229.42c0.28,-10.22 0.41,-17.94 0.41,-23.17 4.9,0.22 9.24,0.33 13,0.33 4.71,0 8.97,-0.11 12.81,-0.33 -0.18,3.39 -0.46,11.11 -0.82,23.17 -4.8,-0.11 -8.92,-0.17 -12.4,-0.17 -3.48,0 -7.83,0.06 -13,0.17zm-6.18 200.17l2.43 -41.06 2.74 -70.06 1.15 -53.89 12.22 0.17 11.94 -0.17c-1.01,16.94 -1.92,34.67 -2.74,53.17 -0.83,18.56 -1.47,38.78 -1.97,60.67 -0.5,21.94 -0.73,39 -0.73,51.17 -5.67,-0.22 -9.7,-0.33 -12.13,-0.33 -2.24,0 -6.55,0.11 -12.91,0.33z"/>
  <path id="_33" class="fil2" d="M7507.02 3429.59c4.39,-68.11 6.63,-123.11 6.81,-165l12.04 0.17c2.93,0 6.82,-0.06 11.63,-0.17l-1.79 32.67c2.24,-4.61 4.03,-8.11 5.35,-10.56 1.33,-2.39 3.11,-5 5.35,-7.72 2.24,-2.72 4.85,-5.22 7.92,-7.56 3.02,-2.33 6.59,-4.28 10.7,-5.83 4.07,-1.61 8.24,-2.78 12.49,-3.5 4.26,-0.78 8.47,-1.17 12.63,-1.17 7.69,0 15.1,1.17 22.24,3.44 7.14,2.28 12.99,5.94 17.57,11.11 4.58,5.17 7.69,10.94 9.24,17.33 1.56,6.44 2.33,13.33 2.33,20.72 0,1.39 -0.05,4.11 -0.14,8.11 -0.09,4 -0.28,9.28 -0.55,15.78l-2.7 68.22c-0.18,6.5 -0.32,14.5 -0.41,23.94 -4.03,-0.22 -7.78,-0.33 -11.35,-0.33 -4.39,0 -8.46,0.11 -12.31,0.33 0.91,-13.11 1.56,-25.78 2.01,-37.94l1.74 -37.94c0.55,-13 0.82,-22.83 0.82,-29.44 0,-9.56 -1.33,-17.17 -4.03,-22.83 -2.65,-5.72 -6.96,-10.11 -12.86,-13.22 -5.86,-3.06 -12.49,-4.61 -19.81,-4.61 -10.34,0 -19.22,3 -26.63,8.94 -6.77,5.56 -12.04,13.39 -15.79,23.61 -2.56,7.28 -4.39,18 -5.49,32.22 -1.33,17 -2.29,44.11 -2.84,81.22 -4.99,-0.22 -8.87,-0.33 -11.62,-0.33 -2.79,0 -6.96,0.11 -12.58,0.33z"/>
  <path id="_34" class="fil2" d="M7784.88 3403.93c-1.1,5.94 -2.2,13.5 -3.3,22.67 -8.6,2.61 -16.02,4.39 -22.33,5.28 -6.31,0.94 -12.58,1.39 -18.85,1.39 -11.17,0 -21.23,-1.61 -30.11,-4.89 -8.92,-3.28 -16.52,-8.94 -22.88,-17 -6.36,-8.11 -10.94,-17.39 -13.69,-27.78 -2.79,-10.44 -4.16,-21.44 -4.16,-33.06 0,-16.22 2.56,-31.22 7.64,-45.06 5.08,-13.83 12.77,-24.72 23.02,-32.67 10.2,-7.94 23.2,-11.89 38.94,-11.89 8.15,0 15.93,1.44 23.34,4.33 7.41,2.89 13.59,7.28 18.49,13.11 4.94,5.89 8.74,13.17 11.4,21.83 2.7,8.61 4.03,18.06 4.03,28.28 0,3.94 -0.28,7.72 -0.83,11.44l-102.14 0c-0.37,5.94 -0.55,10.5 -0.55,13.67 0,11.39 1.97,21.89 5.9,31.44 3.94,9.61 9.75,16.89 17.44,21.83 7.69,4.94 16.52,7.39 26.54,7.39 11.53,0 25.58,-3.44 42.1,-10.33zm-90.33 -77.67l79.63 0c-0.09,-6.83 -0.46,-12.11 -1.05,-15.89 -0.64,-3.78 -1.78,-7.72 -3.48,-11.72 -1.69,-4.06 -3.98,-7.61 -6.91,-10.56 -2.89,-3 -6.37,-5.22 -10.39,-6.83 -4.07,-1.56 -8.46,-2.33 -13.18,-2.33 -5.08,0 -9.89,0.89 -14.51,2.61 -4.57,1.72 -8.6,4.11 -12.12,7.11 -3.53,3.06 -6.5,6.56 -8.97,10.61 -2.43,4.06 -4.25,8 -5.49,11.78 -1.19,3.78 -2.38,8.83 -3.53,15.22z"/>
  <path id="_35" class="fil2" d="M7812.84 3426.59l-0.83 -12.11c0,-1.28 -0.37,-5.5 -1.09,-12.56 13.82,7.33 26.59,11 38.26,11 6.13,0 11.3,-0.94 15.51,-2.89 4.21,-1.94 7.41,-4.83 9.52,-8.67 2.11,-3.83 3.16,-7.83 3.16,-11.89 0,-2.28 -0.28,-4.56 -0.87,-6.83 -0.59,-2.28 -1.46,-4.44 -2.65,-6.56 -1.14,-2.11 -2.88,-4.39 -5.17,-6.94 -2.29,-2.56 -7.09,-7.33 -14.33,-14.39 -7.23,-7.06 -12.72,-12.56 -16.47,-16.56 -3.71,-3.94 -6.91,-8 -9.56,-12.22 -2.66,-4.17 -4.62,-8.39 -5.9,-12.61 -1.24,-4.22 -1.88,-8.5 -1.88,-12.89 0,-6.94 1.83,-13.67 5.44,-20.17 3.61,-6.5 8.88,-11.39 15.74,-14.61 6.87,-3.17 14.92,-4.78 24.12,-4.78 10.34,0 21.69,1.44 34.05,4.33 0.37,8.5 0.82,16.28 1.37,23.33 -10.06,-4.89 -20,-7.33 -29.79,-7.33 -5.26,0 -10.2,0.83 -14.74,2.5 -4.53,1.72 -7.87,4.22 -9.98,7.56 -2.1,3.39 -3.16,7.06 -3.16,11.06 0,2.61 0.37,5.11 1.1,7.5 0.69,2.33 1.96,4.94 3.84,7.67 1.83,2.78 4.07,5.5 6.68,8.22 2.61,2.72 7.78,7.83 15.56,15.33 7.83,7.44 13.13,13 16.02,16.61 2.89,3.56 5.35,7.28 7.41,11.06 2.06,3.78 3.57,7.56 4.53,11.33 0.96,3.72 1.42,7.56 1.42,11.44 0,7.61 -1.87,14.67 -5.58,21.22 -3.71,6.5 -9.25,11.56 -16.61,15.11 -7.37,3.61 -15.61,5.39 -24.76,5.39 -3.85,0 -8.37,-0.28 -13.59,-0.89 -5.21,-0.61 -9.61,-1.28 -13.22,-2.11 -3.66,-0.83 -8.15,-2.06 -13.54,-3.67z"/>
  <path id="_36" class="fil2" d="M7921.85 3426.59l-0.82 -12.11c0,-1.28 -0.37,-5.5 -1.1,-12.56 13.82,7.33 26.59,11 38.26,11 6.13,0 11.3,-0.94 15.51,-2.89 4.21,-1.94 7.41,-4.83 9.52,-8.67 2.11,-3.83 3.16,-7.83 3.16,-11.89 0,-2.28 -0.28,-4.56 -0.87,-6.83 -0.59,-2.28 -1.46,-4.44 -2.65,-6.56 -1.15,-2.11 -2.89,-4.39 -5.17,-6.94 -2.29,-2.56 -7.09,-7.33 -14.32,-14.39 -7.23,-7.06 -12.72,-12.56 -16.48,-16.56 -3.7,-3.94 -6.91,-8 -9.56,-12.22 -2.66,-4.17 -4.62,-8.39 -5.9,-12.61 -1.24,-4.22 -1.88,-8.5 -1.88,-12.89 0,-6.94 1.83,-13.67 5.44,-20.17 3.61,-6.5 8.88,-11.39 15.74,-14.61 6.87,-3.17 14.92,-4.78 24.12,-4.78 10.34,0 21.69,1.44 34.05,4.33 0.37,8.5 0.82,16.28 1.37,23.33 -10.07,-4.89 -20,-7.33 -29.79,-7.33 -5.26,0 -10.2,0.83 -14.74,2.5 -4.53,1.72 -7.87,4.22 -9.98,7.56 -2.1,3.39 -3.16,7.06 -3.16,11.06 0,2.61 0.37,5.11 1.1,7.5 0.69,2.33 1.97,4.94 3.84,7.67 1.83,2.78 4.07,5.5 6.68,8.22 2.61,2.72 7.78,7.83 15.56,15.33 7.83,7.44 13.13,13 16.02,16.61 2.88,3.56 5.35,7.28 7.41,11.06 2.06,3.78 3.57,7.56 4.53,11.33 0.96,3.72 1.42,7.56 1.42,11.44 0,7.61 -1.87,14.67 -5.58,21.22 -3.71,6.5 -9.25,11.56 -16.61,15.11 -7.37,3.61 -15.61,5.39 -24.76,5.39 -3.84,0 -8.37,-0.28 -13.59,-0.89 -5.22,-0.61 -9.61,-1.28 -13.22,-2.11 -3.66,-0.83 -8.15,-2.06 -13.55,-3.67z"/>
  <path id="_37" class="fil2" d="M8145.9 3429.59l2.66 -49.78 3.57 -103.22 1.19 -47.67c-21.83,0.11 -40.96,0.56 -57.34,1.33 0.5,-8.72 0.82,-16.39 0.91,-23 22.7,0.11 47.18,0.17 73.4,0.17l42.88 -0.17 22.79 0c-0.64,9.61 -0.96,17.28 -0.96,23 -13.82,-0.89 -29.15,-1.33 -45.99,-1.33l-10.98 0 -2.75 72.06 -2.7 101.44 0 27.17 -12.95 -0.33c-1.14,0 -5.72,0.11 -13.73,0.33z"/>
  <path id="_38" class="fil2" d="M8249.82 3429.59l3.3 -70.83 3.02 -96.61 0.82 -54.89 12.22 0.17c3.02,0 7,-0.06 11.94,-0.17l-2.98 56.67 -1.05 33.78c2.15,-4.67 3.98,-8.39 5.58,-11.17 1.56,-2.78 3.57,-5.5 6.04,-8.28 2.43,-2.78 5.03,-5.11 7.69,-7.11 2.7,-1.94 5.72,-3.61 9.02,-5.11 3.3,-1.44 7.27,-2.67 11.94,-3.67 4.67,-0.94 9.52,-1.44 14.64,-1.44 7.59,0 14.87,1.06 21.83,3.11 6.91,2.06 12.86,5.44 17.85,10.22 4.94,4.78 8.37,10.44 10.2,17.06 1.83,6.67 2.74,13.39 2.74,20.17 0,2.72 -0.05,6.33 -0.14,10.78 -0.28,6.72 -0.64,14.56 -1.1,23.56l-2.29 59.89c-0.28,6.5 -0.46,14.44 -0.55,23.89 -5.21,-0.22 -9.2,-0.33 -11.99,-0.33 -3.02,0 -7.28,0.11 -12.77,0.33 1.01,-11.72 2.15,-30.17 3.43,-55.28 1.33,-25.17 1.97,-42.61 1.97,-52.39 0,-8.72 -1.33,-15.94 -3.89,-21.61 -2.61,-5.72 -6.91,-10.11 -12.91,-13.17 -5.99,-3.06 -12.63,-4.56 -19.95,-4.56 -6.72,0 -13,1.22 -18.81,3.72 -5.26,2.28 -9.74,5.5 -13.45,9.61 -3.75,4.17 -6.73,9.22 -8.93,15.17 -2.43,6.39 -4.12,12.89 -5.13,19.39 -1.51,10.33 -2.56,24.67 -3.2,43 -0.37,10.94 -0.87,29.67 -1.51,56.11 -4.94,-0.22 -8.7,-0.33 -11.21,-0.33 -2.29,0 -6.45,0.11 -12.4,0.33z"/>
  <path id="_39" class="fil2" d="M8415.62 3429.59c3.2,-62.67 4.8,-112.67 4.8,-150l-0.14 -15c4.57,0.11 8.37,0.17 11.35,0.17 3.39,0 7.23,-0.06 11.44,-0.17l-1.01 27.06c3.3,-6.72 6.22,-11.78 8.79,-15.22 2.52,-3.39 5.4,-6.22 8.6,-8.44 3.2,-2.22 6.86,-3.94 10.94,-5.17 4.03,-1.28 8.28,-1.89 12.63,-1.89 3.75,0 7.46,0.56 11.12,1.67 0.09,7.06 0.37,14.94 0.82,23.67 -5.5,-1.78 -10.44,-2.67 -14.78,-2.67 -5.26,0 -9.97,1.06 -14.14,3.17 -4.21,2.17 -7.96,5.33 -11.26,9.67 -3.34,4.28 -6.09,9.44 -8.24,15.39 -1.78,4.83 -3.11,11 -4.07,18.67 -0.91,7.61 -1.65,21.44 -2.19,41.61 -0.32,14.67 -0.5,30.17 -0.5,46.61l0 10.89c-4.9,-0.22 -8.83,-0.33 -11.81,-0.33 -2.7,0 -6.82,0.11 -12.35,0.33z"/>
  <path id="_40" class="fil2" d="M8518.9 3229.42c0.27,-10.22 0.41,-17.94 0.41,-23.17 4.9,0.22 9.24,0.33 13,0.33 4.72,0 8.97,-0.11 12.81,-0.33 -0.18,3.39 -0.46,11.11 -0.82,23.17 -4.8,-0.11 -8.92,-0.17 -12.4,-0.17 -3.48,0 -7.82,0.06 -12.99,0.17zm-6.18 200.17l2.43 -41.06 2.74 -70.06 1.14 -53.89 12.22 0.17 11.94 -0.17c-1.01,16.94 -1.93,34.67 -2.75,53.17 -0.82,18.56 -1.46,38.78 -1.97,60.67 -0.5,21.94 -0.73,39 -0.73,51.17 -5.67,-0.22 -9.7,-0.33 -12.13,-0.33 -2.24,0 -6.54,0.11 -12.9,0.33z"/>
  <path id="_41" class="fil2" d="M8610.15 3429.59l-4.57 -16.44c-1.51,-5.33 -5.12,-17.44 -10.75,-36.33l-33.73 -112.22c5.44,0.11 9.7,0.17 12.81,0.17 3.39,0 7.37,-0.06 11.99,-0.17l2.84 11.39c0.82,3.28 2.19,8.5 4.21,15.67l31.71 113.5 42.56 -124.44 5.08 -16.11c5.26,0.11 9.47,0.17 12.63,0.17 3.11,0 7.32,-0.06 12.63,-0.17l-17.44 45.44 -34.96 94.78 -8.56 24.78c-5.58,-0.22 -9.89,-0.33 -13.04,-0.33 -3.2,0 -7.69,0.11 -13.41,0.33z"/>
  <path id="_42" class="fil2" d="M8820.33 3403.93c-1.09,5.94 -2.19,13.5 -3.29,22.67 -8.6,2.61 -16.02,4.39 -22.33,5.28 -6.31,0.94 -12.58,1.39 -18.85,1.39 -11.17,0 -21.23,-1.61 -30.11,-4.89 -8.92,-3.28 -16.52,-8.94 -22.88,-17 -6.36,-8.11 -10.94,-17.39 -13.69,-27.78 -2.79,-10.44 -4.17,-21.44 -4.17,-33.06 0,-16.22 2.57,-31.22 7.65,-45.06 5.08,-13.83 12.77,-24.72 23.02,-32.67 10.2,-7.94 23.2,-11.89 38.94,-11.89 8.15,0 15.93,1.44 23.34,4.33 7.41,2.89 13.59,7.28 18.49,13.11 4.94,5.89 8.74,13.17 11.39,21.83 2.7,8.61 4.03,18.06 4.03,28.28 0,3.94 -0.28,7.72 -0.82,11.44l-102.14 0c-0.37,5.94 -0.55,10.5 -0.55,13.67 0,11.39 1.97,21.89 5.9,31.44 3.94,9.61 9.75,16.89 17.44,21.83 7.69,4.94 16.52,7.39 26.54,7.39 11.53,0 25.58,-3.44 42.1,-10.33zm-90.33 -77.67l79.63 0c-0.09,-6.83 -0.46,-12.11 -1.05,-15.89 -0.64,-3.78 -1.78,-7.72 -3.48,-11.72 -1.69,-4.06 -3.98,-7.61 -6.91,-10.56 -2.88,-3 -6.36,-5.22 -10.39,-6.83 -4.07,-1.56 -8.46,-2.33 -13.18,-2.33 -5.08,0 -9.89,0.89 -14.51,2.61 -4.57,1.72 -8.6,4.11 -12.13,7.11 -3.52,3.06 -6.5,6.56 -8.97,10.61 -2.43,4.06 -4.26,8 -5.49,11.78 -1.19,3.78 -2.38,8.83 -3.52,15.22z"/>
  <path id="_43" class="fil2" d="M8930.25 3229.42c0.27,-10.22 0.41,-17.94 0.41,-23.17 4.9,0.22 9.24,0.33 13,0.33 4.72,0 8.97,-0.11 12.81,-0.33 -0.18,3.39 -0.46,11.11 -0.82,23.17 -4.8,-0.11 -8.92,-0.17 -12.4,-0.17 -3.48,0 -7.82,0.06 -12.99,0.17zm-6.18 200.17l2.43 -41.06 2.74 -70.06 1.14 -53.89 12.22 0.17 11.94 -0.17c-1.01,16.94 -1.93,34.67 -2.75,53.17 -0.82,18.56 -1.46,38.78 -1.97,60.67 -0.5,21.94 -0.73,39 -0.73,51.17 -5.67,-0.22 -9.7,-0.33 -12.13,-0.33 -2.24,0 -6.54,0.11 -12.9,0.33z"/>
  <path id="_44" class="fil2" d="M8984.25 3429.59c4.39,-68.11 6.64,-123.11 6.82,-165l12.04 0.17c2.93,0 6.82,-0.06 11.63,-0.17l-1.79 32.67c2.24,-4.61 4.03,-8.11 5.35,-10.56 1.33,-2.39 3.11,-5 5.35,-7.72 2.24,-2.72 4.85,-5.22 7.92,-7.56 3.02,-2.33 6.59,-4.28 10.71,-5.83 4.07,-1.61 8.24,-2.78 12.49,-3.5 4.26,-0.78 8.47,-1.17 12.63,-1.17 7.69,0 15.1,1.17 22.24,3.44 7.14,2.28 13,5.94 17.57,11.11 4.58,5.17 7.69,10.94 9.24,17.33 1.56,6.44 2.33,13.33 2.33,20.72 0,1.39 -0.05,4.11 -0.14,8.11 -0.09,4 -0.27,9.28 -0.55,15.78l-2.7 68.22c-0.18,6.5 -0.32,14.5 -0.41,23.94 -4.02,-0.22 -7.78,-0.33 -11.35,-0.33 -4.39,0 -8.47,0.11 -12.31,0.33 0.91,-13.11 1.56,-25.78 2.02,-37.94l1.74 -37.94c0.55,-13 0.82,-22.83 0.82,-29.44 0,-9.56 -1.32,-17.17 -4.03,-22.83 -2.65,-5.72 -6.95,-10.11 -12.86,-13.22 -5.85,-3.06 -12.49,-4.61 -19.81,-4.61 -10.34,0 -19.22,3 -26.64,8.94 -6.77,5.56 -12.03,13.39 -15.78,23.61 -2.57,7.28 -4.4,18 -5.5,32.22 -1.33,17 -2.28,44.11 -2.83,81.22 -4.99,-0.22 -8.88,-0.33 -11.63,-0.33 -2.79,0 -6.96,0.11 -12.58,0.33z"/>
  <path id="_45" class="fil2" d="M9222.3 3429.59l4.44 -98.22 2.15 -74.94 0.41 -25.72c0.09,-3.67 0.13,-11.5 0.13,-23.44l13.64 0.17 12.72 -0.17 -3.89 97.67 108.96 0 2.43 -77.44c0.09,-2.72 0.13,-9.44 0.13,-20.22l13.64 0.17 12.72 -0.17c-2.33,43 -3.98,81.61 -5.03,115.89 -1.01,34.28 -1.74,69.72 -2.06,106.44l-13.13 -0.33c-1.37,0 -5.95,0.11 -13.82,0.33 2.33,-33.89 3.75,-68.22 4.3,-103l-108.96 0 -1.88 66.83 -0.5 36.17 -13.55 -0.33c-1.23,0 -5.54,0.11 -12.86,0.33z"/>
  <path id="_46" class="fil2" d="M9430.1 3290.93c0.78,-4.83 1.6,-11.94 2.47,-21.33 10.75,-3.33 20.09,-5.61 28,-6.83 7.96,-1.22 15.7,-1.83 23.2,-1.83 8.05,0 15.6,0.89 22.65,2.67 7.05,1.83 12.91,4.72 17.53,8.72 4.67,4 7.78,8.61 9.29,13.83 1.51,5.22 2.29,10.83 2.29,16.78 0,7.5 -0.46,20.06 -1.33,37.72 -0.91,17.61 -1.6,33.94 -2.06,48.89 -0.46,15 -0.69,28.33 -0.69,40.06 -4.89,-0.22 -8.83,-0.33 -11.9,-0.33 -2.88,0 -7,0.11 -12.31,0.33l2.7 -44.44 1.97 -52.61c-3.16,2.94 -5.49,5 -7.05,6.22 -1.56,1.17 -3.3,2.28 -5.26,3.33 -1.97,1 -4.12,2 -6.5,2.94 -2.37,0.89 -6.95,2.5 -13.77,4.78 -6.82,2.28 -11.62,4 -14.5,5.22 -6.13,2.39 -10.98,4.78 -14.56,7.17 -3.57,2.39 -6.54,5 -8.97,7.83 -2.43,2.78 -4.12,5.61 -5.08,8.44 -1.14,3.5 -1.74,7.11 -1.74,10.89 0,5.89 1.42,11 4.3,15.33 2.84,4.33 6.45,7.33 10.8,9.06 4.35,1.67 9.52,2.5 15.61,2.5 3.75,0 7.69,-0.33 11.8,-1 4.12,-0.61 9.66,-2.28 16.52,-5 -1.28,4.28 -2.74,10.83 -4.39,19.67 -6.55,1.5 -11.85,2.39 -15.97,2.78 -4.12,0.39 -8.01,0.56 -11.67,0.56 -12.26,0 -21.83,-1.72 -28.69,-5.22 -6.91,-3.44 -12.04,-8.78 -15.47,-15.89 -3.39,-7.11 -5.08,-14.83 -5.08,-23.22 0,-4.89 0.59,-9.39 1.83,-13.5 1.19,-4.11 2.79,-7.89 4.85,-11.22 2.06,-3.39 4.99,-6.78 8.79,-10.11 3.8,-3.39 7.78,-6.17 11.94,-8.33 4.16,-2.17 9.01,-4.28 14.55,-6.44 5.54,-2.11 14.41,-4.94 26.63,-8.56 3.93,-1.06 7.27,-2.17 10.07,-3.33 2.74,-1.11 5.22,-2.22 7.37,-3.33 2.15,-1.06 4.03,-2.33 5.63,-3.83 1.6,-1.44 3.06,-3.22 4.39,-5.33 1.38,-2.17 2.33,-4.28 2.98,-6.44 0.64,-2.17 0.91,-4.33 0.91,-6.56 0,-5.33 -1.42,-9.89 -4.26,-13.72 -2.88,-3.78 -6.63,-6.44 -11.21,-8 -4.62,-1.5 -10.07,-2.28 -16.29,-2.28 -5.86,0 -11.81,0.56 -17.94,1.72 -6.13,1.17 -11.4,2.5 -15.83,4.11 -4.44,1.61 -9.93,4 -16.57,7.17z"/>
  <path id="_47" class="fil2" d="M9567.2 3429.59c3.2,-62.67 4.8,-112.67 4.8,-150l-0.14 -15c4.57,0.11 8.38,0.17 11.35,0.17 3.39,0 7.23,-0.06 11.44,-0.17l-1.01 27.06c3.3,-6.72 6.22,-11.78 8.79,-15.22 2.52,-3.39 5.4,-6.22 8.6,-8.44 3.2,-2.22 6.86,-3.94 10.94,-5.17 4.03,-1.28 8.28,-1.89 12.63,-1.89 3.75,0 7.46,0.56 11.12,1.67 0.09,7.06 0.37,14.94 0.82,23.67 -5.49,-1.78 -10.44,-2.67 -14.78,-2.67 -5.26,0 -9.98,1.06 -14.14,3.17 -4.21,2.17 -7.96,5.33 -11.26,9.67 -3.34,4.28 -6.09,9.44 -8.24,15.39 -1.78,4.83 -3.11,11 -4.07,18.67 -0.91,7.61 -1.65,21.44 -2.19,41.61 -0.32,14.67 -0.5,30.17 -0.5,46.61l0 10.89c-4.9,-0.22 -8.83,-0.33 -11.81,-0.33 -2.7,0 -6.82,0.11 -12.35,0.33z"/>
  <path id="_48" class="fil2" d="M9663.21 3429.59l1.51 -23.61c0.28,-5 0.64,-12.89 1.1,-23.61l3.3 -99.22c0.09,-8.11 0.14,-14.33 0.14,-18.56 4.17,0.11 7.96,0.17 11.44,0.17 3.76,0 7.41,-0.06 11.07,-0.17l-1.14 30.33c3.02,-6.06 5.77,-10.89 8.24,-14.44 2.43,-3.61 5.67,-6.89 9.7,-9.94 4.03,-3.06 8.61,-5.39 13.73,-7.11 5.12,-1.67 10.48,-2.5 16.01,-2.5 3.85,0 7.65,0.56 11.4,1.61 3.75,1.11 7.23,2.61 10.39,4.56 3.16,2 5.91,4.22 8.19,6.72 2.24,2.44 4.12,5.17 5.49,8.11 1.37,2.94 2.79,7.17 4.21,12.72 5.44,-12.5 12.27,-21.22 20.46,-26.22 8.19,-5 17.34,-7.5 27.46,-7.5 6.45,0 12.68,1.22 18.72,3.72 6.04,2.5 10.85,6.11 14.46,10.78 3.57,4.67 5.95,9.5 7.14,14.56 1.24,5.06 1.83,10.11 1.83,15.22 0,5.22 -0.32,13 -0.92,23.44 -0.64,10.44 -1.33,26.28 -2.1,47.61 -0.82,21.33 -1.24,39.11 -1.33,53.33 -4.76,-0.22 -8.47,-0.33 -11.17,-0.33 -2.88,0 -7.14,0.11 -12.77,0.33 0.96,-14.67 1.78,-30.61 2.47,-47.89l1.69 -40.33c0.46,-9.78 0.64,-18.22 0.64,-25.28 0,-6.33 -0.51,-11.28 -1.6,-14.83 -1.06,-3.56 -2.79,-6.78 -5.17,-9.61 -2.33,-2.89 -5.26,-5 -8.74,-6.5 -3.48,-1.5 -7.46,-2.22 -11.94,-2.22 -3.57,0 -6.86,0.5 -9.93,1.5 -2.84,0.94 -5.63,2.44 -8.28,4.39 -2.98,2.06 -5.58,4.61 -7.92,7.67 -2.33,2.94 -4.3,6.28 -5.9,10 -1.69,3.83 -3.07,8.33 -4.12,13.61 -1.37,6.5 -2.29,14.56 -2.84,24 -0.64,10.11 -1.15,23.39 -1.51,39.89l-1.05 45.61c-5.22,-0.22 -9.11,-0.33 -11.72,-0.33 -2.42,0 -6.5,0.11 -12.22,0.33 0.92,-13.44 1.65,-27.28 2.2,-41.5l1.65 -39.44c0.46,-12.11 0.69,-22.5 0.69,-31.06 0,-5.56 -0.46,-10.28 -1.33,-14.17 -0.92,-3.83 -2.61,-7.39 -5.04,-10.61 -2.47,-3.22 -5.44,-5.67 -8.92,-7.33 -3.48,-1.72 -7.32,-2.56 -11.53,-2.56 -4.48,0 -8.74,0.94 -12.77,2.83 -4.03,1.94 -7.74,4.72 -11.12,8.44 -3.39,3.67 -6.27,8.22 -8.6,13.61 -2.29,5.39 -4.12,12.44 -5.4,21.22 -1.33,8.72 -2.29,24 -3.02,45.67 -0.69,21.72 -1.05,40 -1.05,54.89 -5.72,-0.22 -9.7,-0.33 -11.85,-0.33 -2.33,0 -6.45,0.11 -12.31,0.33z"/>
  <path id="_49" class="fil2" d="M9966.79 3260.92c9.38,0 18.35,1.61 26.81,4.89 8.52,3.28 15.88,8.39 22.06,15.44 6.22,7.11 10.94,16 14.14,26.72 3.25,10.78 4.85,22.11 4.85,34.06 0,12.94 -1.74,25.33 -5.17,37.17 -3.43,11.83 -8.28,21.83 -14.46,30.11 -6.22,8.28 -13.82,14.33 -22.83,18.17 -8.97,3.83 -18.58,5.78 -28.87,5.78 -9.56,0 -18.62,-1.72 -27.09,-5.22 -8.51,-3.44 -15.88,-8.89 -22.06,-16.28 -6.22,-7.39 -10.93,-16.44 -14.14,-27.11 -3.25,-10.72 -4.85,-21.94 -4.85,-33.67 0,-17.67 2.93,-33.61 8.83,-47.78 5.9,-14.17 14.6,-24.78 26.04,-31.78 11.44,-7 23.7,-10.5 36.74,-10.5zm-0.59 20.67c-9.15,0 -17.53,2.78 -25.17,8.28 -7.69,5.56 -13.32,13.89 -17.03,25 -3.66,11.11 -5.49,23.22 -5.49,36.39 0,11.5 1.51,21.83 4.57,31 3.02,9.17 8.06,16.56 15.01,22.22 7,5.61 15.42,8.44 25.26,8.44 6.72,0 13.09,-1.39 19.08,-4.17 6,-2.78 11.26,-7.33 15.7,-13.72 4.48,-6.39 7.83,-14.28 9.98,-23.56 2.15,-9.28 3.2,-19 3.2,-29.17 0,-9.56 -1.05,-18.5 -3.2,-26.89 -2.15,-8.33 -5.45,-15.06 -9.89,-20.11 -4.44,-5 -9.47,-8.56 -15.06,-10.61 -5.58,-2.06 -11.26,-3.11 -16.98,-3.11z"/>
  <path id="_50" class="fil2" d="M10059.87 3429.59c4.39,-68.11 6.63,-123.11 6.81,-165l12.04 0.17c2.93,0 6.82,-0.06 11.63,-0.17l-1.79 32.67c2.24,-4.61 4.03,-8.11 5.35,-10.56 1.33,-2.39 3.11,-5 5.35,-7.72 2.24,-2.72 4.85,-5.22 7.92,-7.56 3.02,-2.33 6.59,-4.28 10.71,-5.83 4.07,-1.61 8.24,-2.78 12.49,-3.5 4.25,-0.78 8.46,-1.17 12.63,-1.17 7.69,0 15.1,1.17 22.24,3.44 7.14,2.28 12.99,5.94 17.57,11.11 4.58,5.17 7.69,10.94 9.24,17.33 1.56,6.44 2.33,13.33 2.33,20.72 0,1.39 -0.05,4.11 -0.14,8.11 -0.09,4 -0.27,9.28 -0.55,15.78l-2.7 68.22c-0.18,6.5 -0.31,14.5 -0.41,23.94 -4.02,-0.22 -7.78,-0.33 -11.35,-0.33 -4.39,0 -8.47,0.11 -12.31,0.33 0.91,-13.11 1.56,-25.78 2.01,-37.94l1.74 -37.94c0.55,-13 0.82,-22.83 0.82,-29.44 0,-9.56 -1.33,-17.17 -4.03,-22.83 -2.65,-5.72 -6.96,-10.11 -12.86,-13.22 -5.86,-3.06 -12.49,-4.61 -19.81,-4.61 -10.34,0 -19.22,3 -26.63,8.94 -6.77,5.56 -12.04,13.39 -15.79,23.61 -2.56,7.28 -4.39,18 -5.49,32.22 -1.33,17 -2.29,44.11 -2.84,81.22 -4.99,-0.22 -8.87,-0.33 -11.62,-0.33 -2.79,0 -6.96,0.11 -12.58,0.33z"/>
  <path id="_51" class="fil2" d="M10204.02 3504.93c-0.6,-9.17 -1.33,-16.94 -2.2,-23.33 4.49,2.61 8.65,4.39 12.5,5.28 3.84,0.94 7.09,1.39 9.79,1.39 3.48,0 6.87,-0.78 10.16,-2.28 3.34,-1.5 6,-3.56 8.06,-6.06 2.06,-2.44 4.25,-5.94 6.49,-10.33 2.29,-4.39 4.72,-9.56 7.28,-15.5 2.56,-5.89 4.99,-12.56 7.32,-19.89l-28.6 -98.89 -20.91 -70.72c6.55,0.22 10.94,0.33 13.09,0.33 2.52,0 6.59,-0.11 12.26,-0.33 1.42,7.61 2.61,13.39 3.57,17.44 1.01,4 3.16,12.22 6.45,24.56l20.14 74.78c2.24,8.44 4.48,17.61 6.68,27.39l15.15 -45 28.01 -79.61c0.82,-2.39 1.6,-4.89 2.33,-7.44 0.78,-2.56 1.97,-6.56 3.57,-12.11 5.72,0.22 9.7,0.33 11.94,0.33 1.87,0 5.99,-0.11 12.44,-0.33 -3.48,9.67 -11.94,32.17 -25.35,67.56l-49.7 134.28c-3.48,9 -6.68,15.83 -9.52,20.5 -2.33,3.72 -4.85,6.89 -7.55,9.61 -2.15,2.28 -4.53,4.22 -7.23,5.89 -3.3,1.94 -6.91,3.44 -10.76,4.56 -4.21,1.06 -8.46,1.61 -12.86,1.61 -6.91,0 -14.42,-1.22 -22.56,-3.67z"/>
 </g>
</svg>